G04*
G04 #@! TF.GenerationSoftware,Altium Limited,Altium Designer,24.1.2 (44)*
G04*
G04 Layer_Color=65535*
%FSLAX25Y25*%
%MOIN*%
G70*
G04*
G04 #@! TF.SameCoordinates,0CAF675C-D5BD-4F57-B94F-0EABEFC4C8CF*
G04*
G04*
G04 #@! TF.FilePolarity,Positive*
G04*
G01*
G75*
%ADD10C,0.00984*%
%ADD11C,0.00394*%
%ADD12C,0.02362*%
%ADD13C,0.00787*%
%ADD14C,0.00500*%
%ADD15C,0.00591*%
D10*
X109540Y58573D02*
G03*
X109540Y58573I-492J0D01*
G01*
X85492Y234594D02*
G03*
X85492Y234594I-492J0D01*
G01*
X12901Y216071D02*
G03*
X12901Y216071I-492J0D01*
G01*
X60343Y9528D02*
G03*
X60343Y9528I-492J0D01*
G01*
X135142Y26472D02*
G03*
X135142Y26472I-492J0D01*
G01*
X152642Y189972D02*
G03*
X152642Y189972I-492J0D01*
G01*
X54437Y208500D02*
G03*
X54437Y208500I-492J0D01*
G01*
X180677Y149610D02*
G03*
X180677Y149610I-492J0D01*
G01*
D11*
X60472Y187299D02*
G03*
X60472Y187299I-197J0D01*
G01*
X155600Y158744D02*
G03*
X155600Y158744I-197J0D01*
G01*
X155699Y167213D02*
G03*
X155699Y167213I-197J0D01*
G01*
Y150713D02*
G03*
X155699Y150713I-197J0D01*
G01*
D12*
X94153Y231346D02*
G03*
X94153Y231346I-1181J0D01*
G01*
D13*
X167689Y43500D02*
G03*
X167689Y43500I-394J0D01*
G01*
X7189D02*
G03*
X7189Y43500I-394J0D01*
G01*
X97703Y62401D02*
X100000Y60104D01*
X71604Y88500D02*
X73901Y86203D01*
X97703Y114599D02*
X100000Y116896D01*
X71604Y88500D02*
X73901Y90797D01*
X126099D02*
X128396Y88500D01*
X100000Y116896D02*
X102297Y114599D01*
X126099Y86203D02*
X128396Y88500D01*
X100000Y60104D02*
X102297Y62401D01*
X100500Y248032D02*
Y251969D01*
X95500Y248032D02*
Y251969D01*
X35295Y146563D02*
Y154437D01*
Y146563D02*
X59705D01*
Y154437D01*
X35295D02*
X59705D01*
X57028Y187299D02*
X58701D01*
X46299D02*
X47972D01*
X57028Y199701D02*
X58701D01*
X46299D02*
X47972D01*
X89035Y199063D02*
Y235283D01*
X125256Y199063D02*
Y235283D01*
X89035D02*
X125256D01*
X89035Y199063D02*
X125256D01*
X4441Y241760D02*
X8378D01*
X4441Y227587D02*
Y241760D01*
Y227587D02*
X8378D01*
X35937Y241760D02*
X39874D01*
X35937Y227587D02*
X39874D01*
Y241760D01*
X24811Y5295D02*
X51189D01*
X24811Y28819D02*
Y29705D01*
Y13071D02*
Y21929D01*
Y5295D02*
Y6181D01*
Y29705D02*
X51189D01*
Y28819D02*
Y29705D01*
Y13071D02*
Y21929D01*
Y5295D02*
Y6181D01*
X143311Y30705D02*
X169689D01*
Y6295D02*
Y7181D01*
Y14071D02*
Y22929D01*
Y29819D02*
Y30705D01*
X143311Y6295D02*
X169689D01*
X143311D02*
Y7181D01*
Y14071D02*
Y22929D01*
Y29819D02*
Y30705D01*
X160811Y193319D02*
Y194205D01*
Y177571D02*
Y186429D01*
Y169795D02*
Y170681D01*
Y169795D02*
X187189D01*
Y193319D02*
Y194205D01*
Y177571D02*
Y186429D01*
Y169795D02*
Y170681D01*
X160811Y194205D02*
X187189D01*
X112415Y128441D02*
X116549D01*
X112415Y133559D02*
X116549D01*
X46708Y68433D02*
X57780D01*
X46708Y75567D02*
X57780D01*
X42228Y107500D02*
X45772D01*
X46708Y59933D02*
X57780D01*
X46708Y67067D02*
X57780D01*
X139146Y216228D02*
Y219772D01*
X52354Y222228D02*
Y225772D01*
X7964Y204567D02*
X19036D01*
X7964Y197433D02*
X19036D01*
X133067Y17708D02*
Y28780D01*
X125933Y17708D02*
Y28780D01*
X132209Y169067D02*
X143280D01*
X132209Y161933D02*
X143280D01*
X132208Y159567D02*
X143280D01*
X132208Y152433D02*
X143280D01*
X88964Y39067D02*
X100036D01*
X88964Y31933D02*
X100036D01*
X73209D02*
X84280D01*
X73209Y39067D02*
X84280D01*
X132208Y150567D02*
X143280D01*
X132208Y143433D02*
X143280D01*
X64933Y7464D02*
Y18536D01*
X72067Y7464D02*
Y18536D01*
X159526Y151350D02*
Y152224D01*
Y156776D02*
Y157650D01*
X157901Y151350D02*
X159526D01*
X157901Y157650D02*
X159526D01*
X159624Y159819D02*
Y160693D01*
Y165244D02*
Y166118D01*
X158000Y159819D02*
X159624D01*
X158000Y166118D02*
X159624D01*
Y143319D02*
Y144193D01*
Y148744D02*
Y149618D01*
X158000Y143319D02*
X159624D01*
X158000Y149618D02*
X159624D01*
X60244Y212437D02*
X65756D01*
X60244Y204563D02*
X65756D01*
X182154Y152846D02*
Y156808D01*
X78606Y145075D02*
X82543D01*
X78606Y150075D02*
X82543D01*
X78531Y151075D02*
X82468D01*
X78531Y156075D02*
X82468D01*
X118000Y247532D02*
Y251469D01*
X123000Y247532D02*
Y251469D01*
X107000Y247532D02*
Y251469D01*
X112000Y247532D02*
Y251469D01*
X145055Y101752D02*
X151945D01*
X145055Y108248D02*
X151945D01*
X115606Y182417D02*
X119543D01*
X115606Y177417D02*
X119543D01*
X115606Y170417D02*
X119543D01*
X115606Y165417D02*
X119543D01*
X31862Y210500D02*
X37138D01*
X31862Y205500D02*
X37138D01*
X146531Y109500D02*
X150468D01*
X146531Y114500D02*
X150468D01*
X146606Y115500D02*
X150543D01*
X146606Y120500D02*
X150543D01*
X146606Y121500D02*
X150543D01*
X146606Y126500D02*
X150543D01*
X128252Y246055D02*
Y252945D01*
X134748Y246055D02*
Y252945D01*
X135032Y54500D02*
X138969D01*
X135032Y49500D02*
X138969D01*
X134957Y59000D02*
X138894D01*
X134957Y64000D02*
X138894D01*
X115606Y176417D02*
X119543D01*
X115606Y171417D02*
X119543D01*
D14*
X163299Y208157D02*
Y227843D01*
X150701Y208157D02*
Y227843D01*
X162984Y208157D02*
X163299D01*
X150701D02*
X151016D01*
X162984Y227843D02*
X163299D01*
X150701D02*
X151016D01*
X48784Y125201D02*
Y125516D01*
Y137484D02*
Y137799D01*
X68469Y125201D02*
Y125516D01*
Y137484D02*
Y137799D01*
X48784Y125201D02*
X68469D01*
X48784Y137799D02*
X68469D01*
X169657Y38500D02*
X189343D01*
X169657D02*
Y138500D01*
X189343D01*
Y38500D02*
Y138500D01*
X28843Y38500D02*
Y138500D01*
X9157D02*
X28843D01*
X9157Y38500D02*
Y138500D01*
Y38500D02*
X28843D01*
D15*
X77067Y253768D02*
X78248D01*
X77067D02*
Y258492D01*
X47933D02*
X77067D01*
X47933Y253768D02*
Y258492D01*
X46752Y253768D02*
X47933D01*
X78248Y238807D02*
Y244516D01*
X46752Y238807D02*
Y244516D01*
X69587Y232508D02*
X73327D01*
X51673D02*
X55413D01*
X22492Y165673D02*
Y169413D01*
Y183587D02*
Y187327D01*
X10484Y160752D02*
X16193D01*
X10484Y192248D02*
X16193D01*
X1232Y160752D02*
Y161933D01*
X-3492D02*
X1232D01*
X-3492D02*
Y191067D01*
X1232D01*
Y192248D01*
X92188Y124484D02*
Y122844D01*
X92516Y122516D01*
X93172D01*
X93500Y122844D01*
Y124484D01*
X94156Y122516D02*
X94812D01*
X94484D01*
Y124484D01*
X94156Y124156D01*
X181704Y245170D02*
Y247137D01*
X182688D01*
X183016Y246810D01*
Y246154D01*
X182688Y245826D01*
X181704D01*
X182360D02*
X183016Y245170D01*
X184984D02*
X183672D01*
X184984Y246482D01*
Y246810D01*
X184656Y247137D01*
X184000D01*
X183672Y246810D01*
X185640Y245170D02*
X186296D01*
X185968D01*
Y247137D01*
X185640Y246810D01*
X181876Y237363D02*
Y239330D01*
X182860D01*
X183188Y239002D01*
Y238346D01*
X182860Y238018D01*
X181876D01*
X182532D02*
X183188Y237363D01*
X185156D02*
X183844D01*
X185156Y238674D01*
Y239002D01*
X184828Y239330D01*
X184172D01*
X183844Y239002D01*
X187124Y237363D02*
X185812D01*
X187124Y238674D01*
Y239002D01*
X186796Y239330D01*
X186140D01*
X185812Y239002D01*
X87876Y248516D02*
Y250484D01*
X88860D01*
X89188Y250156D01*
Y249500D01*
X88860Y249172D01*
X87876D01*
X88532D02*
X89188Y248516D01*
X91156D02*
X89844D01*
X91156Y249828D01*
Y250156D01*
X90828Y250484D01*
X90172D01*
X89844Y250156D01*
X92796Y248516D02*
Y250484D01*
X91812Y249500D01*
X93124D01*
X104156Y250328D02*
X104484Y250656D01*
Y251312D01*
X104156Y251640D01*
X102844D01*
X102516Y251312D01*
Y250656D01*
X102844Y250328D01*
X102516Y248360D02*
Y249672D01*
X103828Y248360D01*
X104156D01*
X104484Y248688D01*
Y249344D01*
X104156Y249672D01*
X164860Y218484D02*
Y218156D01*
X165516Y217500D01*
X166172Y218156D01*
Y218484D01*
X165516Y217500D02*
Y216516D01*
X168140Y218484D02*
X166828D01*
Y217500D01*
X167484Y217828D01*
X167812D01*
X168140Y217500D01*
Y216844D01*
X167812Y216516D01*
X167156D01*
X166828Y216844D01*
X40112Y132484D02*
Y132156D01*
X40768Y131500D01*
X41424Y132156D01*
Y132484D01*
X40768Y131500D02*
Y130516D01*
X43392D02*
X42080D01*
X43392Y131828D01*
Y132156D01*
X43064Y132484D01*
X42408D01*
X42080Y132156D01*
X35100Y162768D02*
Y162440D01*
X35756Y161784D01*
X36412Y162440D01*
Y162768D01*
X35756Y161784D02*
Y160800D01*
X37068D02*
X37724D01*
X37396D01*
Y162768D01*
X37068Y162440D01*
X39360Y198484D02*
Y196844D01*
X39688Y196516D01*
X40344D01*
X40672Y196844D01*
Y198484D01*
X41328Y198156D02*
X41656Y198484D01*
X42312D01*
X42640Y198156D01*
Y197828D01*
X42312Y197500D01*
X42640Y197172D01*
Y196844D01*
X42312Y196516D01*
X41656D01*
X41328Y196844D01*
Y197172D01*
X41656Y197500D01*
X41328Y197828D01*
Y198156D01*
X41656Y197500D02*
X42312D01*
X83151Y241515D02*
Y239876D01*
X83479Y239547D01*
X84135D01*
X84463Y239876D01*
Y241515D01*
X86431Y239547D02*
X85119D01*
X86431Y240859D01*
Y241187D01*
X86103Y241515D01*
X85447D01*
X85119Y241187D01*
X4188Y215656D02*
X3860Y215984D01*
X3204D01*
X2876Y215656D01*
Y215328D01*
X3204Y215000D01*
X3860D01*
X4188Y214672D01*
Y214344D01*
X3860Y214016D01*
X3204D01*
X2876Y214344D01*
X4844Y215984D02*
Y214016D01*
X5500Y214672D01*
X6156Y214016D01*
Y215984D01*
X6812Y215656D02*
X7140Y215984D01*
X7796D01*
X8124Y215656D01*
Y215328D01*
X7796Y215000D01*
X7468D01*
X7796D01*
X8124Y214672D01*
Y214344D01*
X7796Y214016D01*
X7140D01*
X6812Y214344D01*
X8688Y18656D02*
X8360Y18984D01*
X7704D01*
X7376Y18656D01*
Y18328D01*
X7704Y18000D01*
X8360D01*
X8688Y17672D01*
Y17344D01*
X8360Y17016D01*
X7704D01*
X7376Y17344D01*
X9344Y18984D02*
Y17016D01*
X10000Y17672D01*
X10656Y17016D01*
Y18984D01*
X12624Y17016D02*
X11312D01*
X12624Y18328D01*
Y18656D01*
X12296Y18984D01*
X11640D01*
X11312Y18656D01*
X183016Y19156D02*
X182688Y19484D01*
X182032D01*
X181704Y19156D01*
Y18828D01*
X182032Y18500D01*
X182688D01*
X183016Y18172D01*
Y17844D01*
X182688Y17516D01*
X182032D01*
X181704Y17844D01*
X183672Y19484D02*
Y17516D01*
X184328Y18172D01*
X184984Y17516D01*
Y19484D01*
X185640Y17516D02*
X186296D01*
X185968D01*
Y19484D01*
X185640Y19156D01*
X151800Y197600D02*
Y199568D01*
X152784D01*
X153112Y199240D01*
Y198584D01*
X152784Y198256D01*
X151800D01*
X152456D02*
X153112Y197600D01*
X155080Y199568D02*
X153768D01*
Y197600D01*
X155080D01*
X153768Y198584D02*
X154424D01*
X157048Y199240D02*
X156720Y199568D01*
X156064D01*
X155736Y199240D01*
Y198912D01*
X156064Y198584D01*
X156720D01*
X157048Y198256D01*
Y197928D01*
X156720Y197600D01*
X156064D01*
X155736Y197928D01*
X159016Y199568D02*
X157704D01*
Y197600D01*
X159016D01*
X157704Y198584D02*
X158360D01*
X159671Y199568D02*
X160983D01*
X160327D01*
Y197600D01*
X119204Y130016D02*
Y131984D01*
X120188D01*
X120516Y131656D01*
Y131000D01*
X120188Y130672D01*
X119204D01*
X119860D02*
X120516Y130016D01*
X121172Y131656D02*
X121500Y131984D01*
X122156D01*
X122484Y131656D01*
Y131328D01*
X122156Y131000D01*
X121828D01*
X122156D01*
X122484Y130672D01*
Y130344D01*
X122156Y130016D01*
X121500D01*
X121172Y130344D01*
X123140Y130016D02*
X123796D01*
X123468D01*
Y131984D01*
X123140Y131656D01*
X36376Y71516D02*
Y73484D01*
X37360D01*
X37688Y73156D01*
Y72500D01*
X37360Y72172D01*
X36376D01*
X37032D02*
X37688Y71516D01*
X39656D02*
X38344D01*
X39656Y72828D01*
Y73156D01*
X39328Y73484D01*
X38672D01*
X38344Y73156D01*
X40312Y71844D02*
X40640Y71516D01*
X41296D01*
X41624Y71844D01*
Y73156D01*
X41296Y73484D01*
X40640D01*
X40312Y73156D01*
Y72828D01*
X40640Y72500D01*
X41624D01*
X136203Y173016D02*
Y174984D01*
X137187D01*
X137515Y174656D01*
Y174000D01*
X137187Y173672D01*
X136203D01*
X136859D02*
X137515Y173016D01*
X139483D02*
X138171D01*
X139483Y174328D01*
Y174656D01*
X139155Y174984D01*
X138499D01*
X138171Y174656D01*
X140139D02*
X140467Y174984D01*
X141123D01*
X141451Y174656D01*
Y174328D01*
X141123Y174000D01*
X141451Y173672D01*
Y173344D01*
X141123Y173016D01*
X140467D01*
X140139Y173344D01*
Y173672D01*
X140467Y174000D01*
X140139Y174328D01*
Y174656D01*
X140467Y174000D02*
X141123D01*
X70376Y216016D02*
Y217984D01*
X71360D01*
X71688Y217656D01*
Y217000D01*
X71360Y216672D01*
X70376D01*
X71032D02*
X71688Y216016D01*
X73656D02*
X72344D01*
X73656Y217328D01*
Y217656D01*
X73328Y217984D01*
X72672D01*
X72344Y217656D01*
X74312Y217984D02*
X75624D01*
Y217656D01*
X74312Y216344D01*
Y216016D01*
X43016Y100124D02*
X44984D01*
Y99140D01*
X44656Y98812D01*
X44000D01*
X43672Y99140D01*
Y100124D01*
Y99468D02*
X43016Y98812D01*
Y96844D02*
Y98156D01*
X44328Y96844D01*
X44656D01*
X44984Y97172D01*
Y97828D01*
X44656Y98156D01*
X44984Y94876D02*
X44656Y95532D01*
X44000Y96188D01*
X43344D01*
X43016Y95860D01*
Y95204D01*
X43344Y94876D01*
X43672D01*
X44000Y95204D01*
Y96188D01*
X36376Y63016D02*
Y64984D01*
X37360D01*
X37688Y64656D01*
Y64000D01*
X37360Y63672D01*
X36376D01*
X37032D02*
X37688Y63016D01*
X39656D02*
X38344D01*
X39656Y64328D01*
Y64656D01*
X39328Y64984D01*
X38672D01*
X38344Y64656D01*
X41624Y64984D02*
X40312D01*
Y64000D01*
X40968Y64328D01*
X41296D01*
X41624Y64000D01*
Y63344D01*
X41296Y63016D01*
X40640D01*
X40312Y63344D01*
X134876Y221516D02*
Y223484D01*
X135860D01*
X136188Y223156D01*
Y222500D01*
X135860Y222172D01*
X134876D01*
X135532D02*
X136188Y221516D01*
X138156D02*
X136844D01*
X138156Y222828D01*
Y223156D01*
X137828Y223484D01*
X137172D01*
X136844Y223156D01*
X138812D02*
X139140Y223484D01*
X139796D01*
X140124Y223156D01*
Y221844D01*
X139796Y221516D01*
X139140D01*
X138812Y221844D01*
Y223156D01*
X63213Y226016D02*
Y227984D01*
X64197D01*
X64525Y227656D01*
Y227000D01*
X64197Y226672D01*
X63213D01*
X63869D02*
X64525Y226016D01*
X65181D02*
X65837D01*
X65509D01*
Y227984D01*
X65181Y227656D01*
X66821Y226344D02*
X67149Y226016D01*
X67805D01*
X68133Y226344D01*
Y227656D01*
X67805Y227984D01*
X67149D01*
X66821Y227656D01*
Y227328D01*
X67149Y227000D01*
X68133D01*
X49540Y218516D02*
Y220484D01*
X50524D01*
X50852Y220156D01*
Y219500D01*
X50524Y219172D01*
X49540D01*
X50196D02*
X50852Y218516D01*
X51508D02*
X52164D01*
X51836D01*
Y220484D01*
X51508Y220156D01*
X54460Y220484D02*
X53804Y220156D01*
X53148Y219500D01*
Y218844D01*
X53476Y218516D01*
X54132D01*
X54460Y218844D01*
Y219172D01*
X54132Y219500D01*
X53148D01*
X11040Y207016D02*
Y208984D01*
X12024D01*
X12352Y208656D01*
Y208000D01*
X12024Y207672D01*
X11040D01*
X11696D02*
X12352Y207016D01*
X13008D02*
X13664D01*
X13336D01*
Y208984D01*
X13008Y208656D01*
X15632Y207016D02*
Y208984D01*
X14648Y208000D01*
X15960D01*
X121516Y24960D02*
X123484D01*
Y23976D01*
X123156Y23648D01*
X122500D01*
X122172Y23976D01*
Y24960D01*
Y24304D02*
X121516Y23648D01*
Y22992D02*
Y22336D01*
Y22664D01*
X123484D01*
X123156Y22992D01*
Y21352D02*
X123484Y21024D01*
Y20368D01*
X123156Y20040D01*
X122828D01*
X122500Y20368D01*
Y20696D01*
Y20368D01*
X122172Y20040D01*
X121844D01*
X121516Y20368D01*
Y21024D01*
X121844Y21352D01*
X123040Y164516D02*
Y166484D01*
X124024D01*
X124352Y166156D01*
Y165500D01*
X124024Y165172D01*
X123040D01*
X123696D02*
X124352Y164516D01*
X125008D02*
X125664D01*
X125336D01*
Y166484D01*
X125008Y166156D01*
X127960Y164516D02*
X126648D01*
X127960Y165828D01*
Y166156D01*
X127632Y166484D01*
X126976D01*
X126648Y166156D01*
X123368Y155016D02*
Y156984D01*
X124352D01*
X124680Y156656D01*
Y156000D01*
X124352Y155672D01*
X123368D01*
X124024D02*
X124680Y155016D01*
X125336D02*
X125992D01*
X125664D01*
Y156984D01*
X125336Y156656D01*
X126976Y155016D02*
X127632D01*
X127304D01*
Y156984D01*
X126976Y156656D01*
X91333Y27445D02*
Y29413D01*
X92317D01*
X92645Y29085D01*
Y28429D01*
X92317Y28101D01*
X91333D01*
X91989D02*
X92645Y27445D01*
X93301D02*
X93957D01*
X93629D01*
Y29413D01*
X93301Y29085D01*
X94941D02*
X95269Y29413D01*
X95925D01*
X96253Y29085D01*
Y27773D01*
X95925Y27445D01*
X95269D01*
X94941Y27773D01*
Y29085D01*
X76323Y27799D02*
Y29766D01*
X77307D01*
X77635Y29438D01*
Y28782D01*
X77307Y28455D01*
X76323D01*
X76979D02*
X77635Y27799D01*
X78291Y28126D02*
X78619Y27799D01*
X79275D01*
X79603Y28126D01*
Y29438D01*
X79275Y29766D01*
X78619D01*
X78291Y29438D01*
Y29111D01*
X78619Y28782D01*
X79603D01*
X118860Y125016D02*
Y126984D01*
X119844D01*
X120172Y126656D01*
Y126000D01*
X119844Y125672D01*
X118860D01*
X119516D02*
X120172Y125016D01*
X120828Y126656D02*
X121156Y126984D01*
X121812D01*
X122140Y126656D01*
Y126328D01*
X121812Y126000D01*
X122140Y125672D01*
Y125344D01*
X121812Y125016D01*
X121156D01*
X120828Y125344D01*
Y125672D01*
X121156Y126000D01*
X120828Y126328D01*
Y126656D01*
X121156Y126000D02*
X121812D01*
X164860Y157516D02*
Y159484D01*
X165844D01*
X166172Y159156D01*
Y158500D01*
X165844Y158172D01*
X164860D01*
X165516D02*
X166172Y157516D01*
X168140Y159484D02*
X166828D01*
Y158500D01*
X167484Y158828D01*
X167812D01*
X168140Y158500D01*
Y157844D01*
X167812Y157516D01*
X167156D01*
X166828Y157844D01*
X164860Y166516D02*
Y168484D01*
X165844D01*
X166172Y168156D01*
Y167500D01*
X165844Y167172D01*
X164860D01*
X165516D02*
X166172Y166516D01*
X167812D02*
Y168484D01*
X166828Y167500D01*
X168140D01*
X164860Y149516D02*
Y151484D01*
X165844D01*
X166172Y151156D01*
Y150500D01*
X165844Y150172D01*
X164860D01*
X165516D02*
X166172Y149516D01*
X166828Y151156D02*
X167156Y151484D01*
X167812D01*
X168140Y151156D01*
Y150828D01*
X167812Y150500D01*
X167484D01*
X167812D01*
X168140Y150172D01*
Y149844D01*
X167812Y149516D01*
X167156D01*
X166828Y149844D01*
X124360Y146016D02*
Y147984D01*
X125344D01*
X125672Y147656D01*
Y147000D01*
X125344Y146672D01*
X124360D01*
X125016D02*
X125672Y146016D01*
X127640D02*
X126328D01*
X127640Y147328D01*
Y147656D01*
X127312Y147984D01*
X126656D01*
X126328Y147656D01*
X74516Y14312D02*
X76484D01*
Y13328D01*
X76156Y13000D01*
X75500D01*
X75172Y13328D01*
Y14312D01*
Y13656D02*
X74516Y13000D01*
Y12344D02*
Y11688D01*
Y12016D01*
X76484D01*
X76156Y12344D01*
X149672Y153844D02*
Y155156D01*
X149344Y155484D01*
X148688D01*
X148360Y155156D01*
Y153844D01*
X148688Y153516D01*
X149344D01*
X149016Y154172D02*
X149672Y153516D01*
X149344D02*
X149672Y153844D01*
X150328Y155156D02*
X150656Y155484D01*
X151312D01*
X151640Y155156D01*
Y154828D01*
X151312Y154500D01*
X150984D01*
X151312D01*
X151640Y154172D01*
Y153844D01*
X151312Y153516D01*
X150656D01*
X150328Y153844D01*
X150172Y162344D02*
Y163656D01*
X149844Y163984D01*
X149188D01*
X148860Y163656D01*
Y162344D01*
X149188Y162016D01*
X149844D01*
X149516Y162672D02*
X150172Y162016D01*
X149844D02*
X150172Y162344D01*
X152140Y162016D02*
X150828D01*
X152140Y163328D01*
Y163656D01*
X151812Y163984D01*
X151156D01*
X150828Y163656D01*
X150500Y145844D02*
Y147156D01*
X150172Y147484D01*
X149516D01*
X149188Y147156D01*
Y145844D01*
X149516Y145516D01*
X150172D01*
X149844Y146172D02*
X150500Y145516D01*
X150172D02*
X150500Y145844D01*
X151156Y145516D02*
X151812D01*
X151484D01*
Y147484D01*
X151156Y147156D01*
X84320Y250016D02*
X84976D01*
X84648D01*
Y251656D01*
X84976Y251984D01*
X85304D01*
X85632Y251656D01*
X83664Y251984D02*
X83008D01*
X83336D01*
Y250016D01*
X83664Y250344D01*
X82024Y251984D02*
X81368D01*
X81696D01*
Y250016D01*
X82024Y250344D01*
X11484Y156328D02*
Y156984D01*
Y156656D01*
X9844D01*
X9516Y156984D01*
Y157312D01*
X9844Y157640D01*
Y155672D02*
X9516Y155344D01*
Y154688D01*
X9844Y154360D01*
X11156D01*
X11484Y154688D01*
Y155344D01*
X11156Y155672D01*
X10828D01*
X10500Y155344D01*
Y154360D01*
X159204Y132484D02*
X158548D01*
X158876D01*
Y130844D01*
X158548Y130516D01*
X158220D01*
X157892Y130844D01*
X161172Y130516D02*
X159860D01*
X161172Y131828D01*
Y132156D01*
X160844Y132484D01*
X160188D01*
X159860Y132156D01*
X163140Y130516D02*
X162812Y130844D01*
X162484Y130516D01*
X162156D01*
X161828Y130844D01*
Y131172D01*
X162156Y131500D01*
X161828Y131828D01*
Y132156D01*
X162156Y132484D01*
X162484D01*
X162812Y132156D01*
Y131828D01*
X162484Y131500D01*
X162812Y131172D01*
Y130844D01*
X163140Y131500D02*
X162812Y131172D01*
X162156Y131500D02*
X162484D01*
X164780Y130516D02*
Y132484D01*
X163796Y131500D01*
X165108D01*
X7912Y144168D02*
X7256D01*
X7584D01*
Y142528D01*
X7256Y142200D01*
X6928D01*
X6600Y142528D01*
X8568Y142200D02*
X9224D01*
X8896D01*
Y144168D01*
X8568Y143840D01*
X11520Y142200D02*
X11192Y142528D01*
X10864Y142200D01*
X10536D01*
X10208Y142528D01*
Y142856D01*
X10536Y143184D01*
X10208Y143512D01*
Y143840D01*
X10536Y144168D01*
X10864D01*
X11192Y143840D01*
Y143512D01*
X10864Y143184D01*
X11192Y142856D01*
Y142528D01*
X11520Y143184D02*
X11192Y142856D01*
X10536Y143184D02*
X10864D01*
X12176Y143840D02*
X12504Y144168D01*
X13160D01*
X13487Y143840D01*
Y143512D01*
X13160Y143184D01*
X12832D01*
X13160D01*
X13487Y142856D01*
Y142528D01*
X13160Y142200D01*
X12504D01*
X12176Y142528D01*
X70860Y208984D02*
Y207016D01*
X71844D01*
X72172Y207344D01*
Y208656D01*
X71844Y208984D01*
X70860D01*
X73812Y207016D02*
Y208984D01*
X72828Y208000D01*
X74140D01*
X179800Y166768D02*
Y164800D01*
X180784D01*
X181112Y165128D01*
Y166440D01*
X180784Y166768D01*
X179800D01*
X181768Y164800D02*
X182424D01*
X182096D01*
Y166768D01*
X181768Y166440D01*
X55656Y99312D02*
X55984Y99640D01*
Y100296D01*
X55656Y100624D01*
X54344D01*
X54016Y100296D01*
Y99640D01*
X54344Y99312D01*
X55656Y98656D02*
X55984Y98328D01*
Y97672D01*
X55656Y97344D01*
X55328D01*
X55000Y97672D01*
Y98000D01*
Y97672D01*
X54672Y97344D01*
X54344D01*
X54016Y97672D01*
Y98328D01*
X54344Y98656D01*
X54016Y95376D02*
Y96688D01*
X55328Y95376D01*
X55656D01*
X55984Y95704D01*
Y96360D01*
X55656Y96688D01*
X50156Y98984D02*
X50484Y99312D01*
Y99968D01*
X50156Y100296D01*
X48844D01*
X48516Y99968D01*
Y99312D01*
X48844Y98984D01*
X50156Y98328D02*
X50484Y98000D01*
Y97344D01*
X50156Y97016D01*
X49828D01*
X49500Y97344D01*
Y97672D01*
Y97344D01*
X49172Y97016D01*
X48844D01*
X48516Y97344D01*
Y98000D01*
X48844Y98328D01*
X48516Y96360D02*
Y95704D01*
Y96032D01*
X50484D01*
X50156Y96360D01*
X78763Y142731D02*
X78435Y143059D01*
X77779D01*
X77451Y142731D01*
Y141419D01*
X77779Y141091D01*
X78435D01*
X78763Y141419D01*
X80731Y141091D02*
X79419D01*
X80731Y142403D01*
Y142731D01*
X80403Y143059D01*
X79747D01*
X79419Y142731D01*
X81387Y141419D02*
X81715Y141091D01*
X82371D01*
X82699Y141419D01*
Y142731D01*
X82371Y143059D01*
X81715D01*
X81387Y142731D01*
Y142403D01*
X81715Y142075D01*
X82699D01*
X79263Y159731D02*
X78935Y160059D01*
X78279D01*
X77951Y159731D01*
Y158419D01*
X78279Y158091D01*
X78935D01*
X79263Y158419D01*
X81231Y158091D02*
X79919D01*
X81231Y159403D01*
Y159731D01*
X80903Y160059D01*
X80247D01*
X79919Y159731D01*
X81887D02*
X82215Y160059D01*
X82871D01*
X83199Y159731D01*
Y159403D01*
X82871Y159075D01*
X83199Y158747D01*
Y158419D01*
X82871Y158091D01*
X82215D01*
X81887Y158419D01*
Y158747D01*
X82215Y159075D01*
X81887Y159403D01*
Y159731D01*
X82215Y159075D02*
X82871D01*
X144656Y211312D02*
X144984Y211640D01*
Y212296D01*
X144656Y212624D01*
X143344D01*
X143016Y212296D01*
Y211640D01*
X143344Y211312D01*
X143016Y209344D02*
Y210656D01*
X144328Y209344D01*
X144656D01*
X144984Y209672D01*
Y210328D01*
X144656Y210656D01*
X144984Y207376D02*
X144656Y208032D01*
X144000Y208688D01*
X143344D01*
X143016Y208360D01*
Y207704D01*
X143344Y207376D01*
X143672D01*
X144000Y207704D01*
Y208688D01*
X144656Y227812D02*
X144984Y228140D01*
Y228796D01*
X144656Y229124D01*
X143344D01*
X143016Y228796D01*
Y228140D01*
X143344Y227812D01*
X143016Y225844D02*
Y227156D01*
X144328Y225844D01*
X144656D01*
X144984Y226172D01*
Y226828D01*
X144656Y227156D01*
X144984Y223876D02*
Y225188D01*
X144000D01*
X144328Y224532D01*
Y224204D01*
X144000Y223876D01*
X143344D01*
X143016Y224204D01*
Y224860D01*
X143344Y225188D01*
X126156Y250812D02*
X126484Y251140D01*
Y251796D01*
X126156Y252124D01*
X124844D01*
X124516Y251796D01*
Y251140D01*
X124844Y250812D01*
X124516Y248844D02*
Y250156D01*
X125828Y248844D01*
X126156D01*
X126484Y249172D01*
Y249828D01*
X126156Y250156D01*
X124516Y247204D02*
X126484D01*
X125500Y248188D01*
Y246876D01*
X115656Y251312D02*
X115984Y251640D01*
Y252296D01*
X115656Y252624D01*
X114344D01*
X114016Y252296D01*
Y251640D01*
X114344Y251312D01*
X114016Y249344D02*
Y250656D01*
X115328Y249344D01*
X115656D01*
X115984Y249672D01*
Y250328D01*
X115656Y250656D01*
Y248688D02*
X115984Y248360D01*
Y247704D01*
X115656Y247376D01*
X115328D01*
X115000Y247704D01*
Y248032D01*
Y247704D01*
X114672Y247376D01*
X114344D01*
X114016Y247704D01*
Y248360D01*
X114344Y248688D01*
X138188Y105656D02*
X137860Y105984D01*
X137204D01*
X136876Y105656D01*
Y104344D01*
X137204Y104016D01*
X137860D01*
X138188Y104344D01*
X140156Y104016D02*
X138844D01*
X140156Y105328D01*
Y105656D01*
X139828Y105984D01*
X139172D01*
X138844Y105656D01*
X142124Y104016D02*
X140812D01*
X142124Y105328D01*
Y105656D01*
X141796Y105984D01*
X141140D01*
X140812Y105656D01*
X109020Y154073D02*
X108692Y154401D01*
X108036D01*
X107708Y154073D01*
Y152761D01*
X108036Y152434D01*
X108692D01*
X109020Y152761D01*
X110988Y152434D02*
X109676D01*
X110988Y153745D01*
Y154073D01*
X110660Y154401D01*
X110004D01*
X109676Y154073D01*
X111644Y152434D02*
X112300D01*
X111972D01*
Y154401D01*
X111644Y154073D01*
X109688Y180573D02*
X109360Y180901D01*
X108704D01*
X108376Y180573D01*
Y179261D01*
X108704Y178934D01*
X109360D01*
X109688Y179261D01*
X111656Y178934D02*
X110344D01*
X111656Y180245D01*
Y180573D01*
X111328Y180901D01*
X110672D01*
X110344Y180573D01*
X112312D02*
X112640Y180901D01*
X113296D01*
X113624Y180573D01*
Y179261D01*
X113296Y178934D01*
X112640D01*
X112312Y179261D01*
Y180573D01*
X109352Y164073D02*
X109024Y164401D01*
X108368D01*
X108040Y164073D01*
Y162761D01*
X108368Y162434D01*
X109024D01*
X109352Y162761D01*
X110008Y162434D02*
X110664D01*
X110336D01*
Y164401D01*
X110008Y164073D01*
X111648Y162761D02*
X111976Y162434D01*
X112632D01*
X112960Y162761D01*
Y164073D01*
X112632Y164401D01*
X111976D01*
X111648Y164073D01*
Y163745D01*
X111976Y163417D01*
X112960D01*
X74156Y197144D02*
X74484Y197472D01*
Y198128D01*
X74156Y198456D01*
X72844D01*
X72516Y198128D01*
Y197472D01*
X72844Y197144D01*
X72516Y196488D02*
Y195832D01*
Y196160D01*
X74484D01*
X74156Y196488D01*
Y194848D02*
X74484Y194520D01*
Y193864D01*
X74156Y193536D01*
X73828D01*
X73500Y193864D01*
X73172Y193536D01*
X72844D01*
X72516Y193864D01*
Y194520D01*
X72844Y194848D01*
X73172D01*
X73500Y194520D01*
X73828Y194848D01*
X74156D01*
X73500Y194520D02*
Y193864D01*
X110002Y168885D02*
X109674Y169213D01*
X109018D01*
X108690Y168885D01*
Y167573D01*
X109018Y167245D01*
X109674D01*
X110002Y167573D01*
X110658Y167245D02*
X111313D01*
X110986D01*
Y169213D01*
X110658Y168885D01*
X112297Y169213D02*
X113609D01*
Y168885D01*
X112297Y167573D01*
Y167245D01*
X109348Y159167D02*
X109020Y159495D01*
X108364D01*
X108036Y159167D01*
Y157855D01*
X108364Y157527D01*
X109020D01*
X109348Y157855D01*
X110004Y157527D02*
X110660D01*
X110332D01*
Y159495D01*
X110004Y159167D01*
X112956Y159495D02*
X111644D01*
Y158511D01*
X112300Y158839D01*
X112628D01*
X112956Y158511D01*
Y157855D01*
X112628Y157527D01*
X111972D01*
X111644Y157855D01*
X26427Y208656D02*
X26099Y208984D01*
X25443D01*
X25115Y208656D01*
Y207344D01*
X25443Y207016D01*
X26099D01*
X26427Y207344D01*
X27083Y207016D02*
X27739D01*
X27411D01*
Y208984D01*
X27083Y208656D01*
X29707Y207016D02*
Y208984D01*
X28723Y208000D01*
X30035D01*
X139352Y112656D02*
X139024Y112984D01*
X138368D01*
X138040Y112656D01*
Y111344D01*
X138368Y111016D01*
X139024D01*
X139352Y111344D01*
X140008Y111016D02*
X140664D01*
X140336D01*
Y112984D01*
X140008Y112656D01*
X142960Y111016D02*
X141648D01*
X142960Y112328D01*
Y112656D01*
X142632Y112984D01*
X141976D01*
X141648Y112656D01*
X140180Y118656D02*
X139852Y118984D01*
X139196D01*
X138868Y118656D01*
Y117344D01*
X139196Y117016D01*
X139852D01*
X140180Y117344D01*
X140836Y117016D02*
X141492D01*
X141164D01*
Y118984D01*
X140836Y118656D01*
X142476Y117016D02*
X143132D01*
X142804D01*
Y118984D01*
X142476Y118656D01*
X140352Y124656D02*
X140024Y124984D01*
X139368D01*
X139040Y124656D01*
Y123344D01*
X139368Y123016D01*
X140024D01*
X140352Y123344D01*
X141008Y123016D02*
X141664D01*
X141336D01*
Y124984D01*
X141008Y124656D01*
X142648D02*
X142976Y124984D01*
X143632D01*
X143960Y124656D01*
Y123344D01*
X143632Y123016D01*
X142976D01*
X142648Y123344D01*
Y124656D01*
X138156Y250328D02*
X138484Y250656D01*
Y251312D01*
X138156Y251640D01*
X136844D01*
X136516Y251312D01*
Y250656D01*
X136844Y250328D01*
Y249672D02*
X136516Y249344D01*
Y248688D01*
X136844Y248360D01*
X138156D01*
X138484Y248688D01*
Y249344D01*
X138156Y249672D01*
X137828D01*
X137500Y249344D01*
Y248360D01*
X144672Y48156D02*
X144344Y48484D01*
X143688D01*
X143360Y48156D01*
Y46844D01*
X143688Y46516D01*
X144344D01*
X144672Y46844D01*
X145328Y48156D02*
X145656Y48484D01*
X146312D01*
X146640Y48156D01*
Y47828D01*
X146312Y47500D01*
X146640Y47172D01*
Y46844D01*
X146312Y46516D01*
X145656D01*
X145328Y46844D01*
Y47172D01*
X145656Y47500D01*
X145328Y47828D01*
Y48156D01*
X145656Y47500D02*
X146312D01*
X144751Y52656D02*
X144423Y52984D01*
X143767D01*
X143439Y52656D01*
Y51344D01*
X143767Y51016D01*
X144423D01*
X144751Y51344D01*
X146719Y52984D02*
X146063Y52656D01*
X145407Y52000D01*
Y51344D01*
X145735Y51016D01*
X146391D01*
X146719Y51344D01*
Y51672D01*
X146391Y52000D01*
X145407D01*
X144672Y57156D02*
X144344Y57484D01*
X143688D01*
X143360Y57156D01*
Y55844D01*
X143688Y55516D01*
X144344D01*
X144672Y55844D01*
X146640Y57484D02*
X145328D01*
Y56500D01*
X145984Y56828D01*
X146312D01*
X146640Y56500D01*
Y55844D01*
X146312Y55516D01*
X145656D01*
X145328Y55844D01*
X144672Y62156D02*
X144344Y62484D01*
X143688D01*
X143360Y62156D01*
Y60844D01*
X143688Y60516D01*
X144344D01*
X144672Y60844D01*
X146312Y60516D02*
Y62484D01*
X145328Y61500D01*
X146640D01*
X144676Y66656D02*
X144348Y66984D01*
X143692D01*
X143364Y66656D01*
Y65344D01*
X143692Y65016D01*
X144348D01*
X144676Y65344D01*
X145332Y66656D02*
X145660Y66984D01*
X146316D01*
X146644Y66656D01*
Y66328D01*
X146316Y66000D01*
X145988D01*
X146316D01*
X146644Y65672D01*
Y65344D01*
X146316Y65016D01*
X145660D01*
X145332Y65344D01*
X112000Y174573D02*
X111672Y174901D01*
X111016D01*
X110688Y174573D01*
Y173261D01*
X111016Y172933D01*
X111672D01*
X112000Y173261D01*
X112656Y172933D02*
X113312D01*
X112984D01*
Y174901D01*
X112656Y174573D01*
X58049Y47516D02*
Y49484D01*
X59033D01*
X59361Y49156D01*
Y48500D01*
X59033Y48172D01*
X58049D01*
X58705D02*
X59361Y47516D01*
X61329D02*
X60017D01*
X61329Y48828D01*
Y49156D01*
X61001Y49484D01*
X60345D01*
X60017Y49156D01*
X61985D02*
X62313Y49484D01*
X62969D01*
X63297Y49156D01*
Y48828D01*
X62969Y48500D01*
X62641D01*
X62969D01*
X63297Y48172D01*
Y47844D01*
X62969Y47516D01*
X62313D01*
X61985Y47844D01*
X58213Y51016D02*
Y52984D01*
X59197D01*
X59525Y52656D01*
Y52000D01*
X59197Y51672D01*
X58213D01*
X58869D02*
X59525Y51016D01*
X60181D02*
X60837D01*
X60509D01*
Y52984D01*
X60181Y52656D01*
X61821D02*
X62149Y52984D01*
X62805D01*
X63133Y52656D01*
Y52328D01*
X62805Y52000D01*
X63133Y51672D01*
Y51344D01*
X62805Y51016D01*
X62149D01*
X61821Y51344D01*
Y51672D01*
X62149Y52000D01*
X61821Y52328D01*
Y52656D01*
X62149Y52000D02*
X62805D01*
M02*
