G04*
G04 #@! TF.GenerationSoftware,Altium Limited,Altium Designer,24.1.2 (44)*
G04*
G04 Layer_Physical_Order=4*
G04 Layer_Color=16711680*
%FSLAX25Y25*%
%MOIN*%
G70*
G04*
G04 #@! TF.SameCoordinates,0CAF675C-D5BD-4F57-B94F-0EABEFC4C8CF*
G04*
G04*
G04 #@! TF.FilePolarity,Positive*
G04*
G01*
G75*
%ADD72C,0.00800*%
%ADD73C,0.03902*%
%ADD74O,0.04528X0.07087*%
%ADD75O,0.05709X0.07874*%
%ADD76C,0.03150*%
%ADD77O,0.07874X0.05709*%
%ADD78O,0.07087X0.04528*%
%ADD79C,0.05937*%
%ADD80R,0.05937X0.05937*%
%ADD81C,0.01100*%
%ADD82C,0.03098*%
G36*
X194980Y248712D02*
X194843Y248598D01*
X194480Y248438D01*
X194209Y248550D01*
X193791D01*
X193405Y248390D01*
X193110Y248095D01*
X192950Y247709D01*
Y247291D01*
X193082Y246972D01*
Y231880D01*
X191050Y229848D01*
X190550Y230055D01*
Y230209D01*
X190390Y230595D01*
X190095Y230890D01*
X189709Y231050D01*
X189291D01*
X188905Y230890D01*
X188610Y230595D01*
X188450Y230209D01*
Y229791D01*
X188610Y229405D01*
X188390Y228918D01*
X183338D01*
X183237Y229161D01*
X182661Y229737D01*
X182041Y229994D01*
Y231006D01*
X182661Y231263D01*
X183237Y231839D01*
X183549Y232592D01*
Y233408D01*
X183237Y234161D01*
X182661Y234737D01*
X181908Y235049D01*
X181092D01*
X180339Y234737D01*
X179763Y234161D01*
X179506Y233541D01*
X178494D01*
X178237Y234161D01*
X177661Y234737D01*
X176908Y235049D01*
X176092D01*
X175339Y234737D01*
X174763Y234161D01*
X174662Y233918D01*
X173581D01*
X173230Y233848D01*
X172932Y233649D01*
X172334Y233050D01*
X172291D01*
X171905Y232890D01*
X171610Y232595D01*
X171450Y232209D01*
Y231791D01*
X171610Y231405D01*
X171905Y231110D01*
X172291Y230950D01*
X172709D01*
X173095Y231110D01*
X173390Y231405D01*
X173465Y231586D01*
X173961Y232082D01*
X174662D01*
X174763Y231839D01*
X175339Y231263D01*
X175959Y231006D01*
Y230535D01*
X175056Y230161D01*
X174339Y229444D01*
X173951Y228507D01*
Y227554D01*
X173792Y227430D01*
X173489Y227309D01*
X157720Y243078D01*
X157422Y243277D01*
X157071Y243347D01*
X120469D01*
X120150Y243479D01*
X119732D01*
X119346Y243320D01*
X119051Y243024D01*
X118891Y242638D01*
Y242220D01*
X119051Y241835D01*
X119346Y241539D01*
X119732Y241379D01*
X120150D01*
X120469Y241512D01*
X156691D01*
X174551Y223651D01*
X174451Y223408D01*
Y222592D01*
X174763Y221839D01*
X175339Y221263D01*
X175959Y221006D01*
Y219994D01*
X175339Y219737D01*
X174763Y219161D01*
X174451Y218408D01*
Y217592D01*
X174763Y216839D01*
X175339Y216263D01*
X175954Y216008D01*
Y215544D01*
X175459Y215339D01*
X153941Y236857D01*
X153643Y237056D01*
X153292Y237126D01*
X122438D01*
X122118Y237258D01*
X121701D01*
X121315Y237098D01*
X121019Y236803D01*
X120859Y236417D01*
Y236040D01*
X120752Y235948D01*
X120407Y235785D01*
X114843Y241349D01*
X114546Y241548D01*
X114194Y241618D01*
X70300D01*
X69949Y241548D01*
X69651Y241349D01*
X68814Y240511D01*
X68543Y240551D01*
X68383Y241080D01*
X68508Y241205D01*
X68668Y241591D01*
Y242009D01*
X68508Y242395D01*
X68213Y242690D01*
X67827Y242850D01*
X67409D01*
X67023Y242690D01*
X66728Y242395D01*
X66568Y242009D01*
Y241591D01*
X66728Y241205D01*
X67016Y240918D01*
X67015Y240873D01*
X66905Y240418D01*
X65587D01*
X65268Y240550D01*
X64850D01*
X64464Y240390D01*
X64169Y240095D01*
X64009Y239709D01*
Y239291D01*
X64169Y238905D01*
X64464Y238610D01*
X64850Y238450D01*
X65268D01*
X65587Y238582D01*
X69100D01*
X69451Y238652D01*
X69749Y238851D01*
X69868Y238970D01*
X70292Y238687D01*
X70268Y238629D01*
Y237804D01*
X70584Y237041D01*
X71167Y236458D01*
X71930Y236142D01*
X72755D01*
X73518Y236458D01*
X73537Y236476D01*
X73961Y236193D01*
X73897Y236041D01*
X73782Y235165D01*
Y233000D01*
X73897Y232124D01*
X74235Y231308D01*
X74773Y230608D01*
X75474Y230070D01*
X76290Y229732D01*
X77165Y229617D01*
X78041Y229732D01*
X78857Y230070D01*
X79558Y230608D01*
X80095Y231308D01*
X80433Y232124D01*
X80549Y233000D01*
Y235165D01*
X80433Y236041D01*
X80095Y236857D01*
X79558Y237558D01*
X78857Y238095D01*
X78041Y238433D01*
X77165Y238548D01*
X76290Y238433D01*
X75474Y238095D01*
X74879Y237639D01*
X74648Y237721D01*
X74485Y237823D01*
X74417Y237886D01*
Y238629D01*
X74147Y239282D01*
X74364Y239782D01*
X113814D01*
X116017Y237580D01*
X115826Y237118D01*
X106800D01*
X106449Y237048D01*
X106151Y236849D01*
X93220Y223918D01*
X69631D01*
X69312Y224050D01*
X68894D01*
X68508Y223890D01*
X68213Y223595D01*
X68053Y223209D01*
Y222791D01*
X68213Y222405D01*
X68508Y222110D01*
X68894Y221950D01*
X69312D01*
X69631Y222082D01*
X93600D01*
X93951Y222152D01*
X94249Y222351D01*
X107180Y235282D01*
X112590D01*
X112797Y234782D01*
X112710Y234695D01*
X112550Y234309D01*
Y233891D01*
X112682Y233572D01*
Y212724D01*
X99981Y200023D01*
X99661Y199890D01*
X99366Y199595D01*
X99233Y199275D01*
X98612Y198654D01*
X98036Y198785D01*
X97990Y198895D01*
X97695Y199190D01*
X97309Y199350D01*
X96891D01*
X96505Y199190D01*
X96210Y198895D01*
X96050Y198509D01*
Y198091D01*
X96210Y197705D01*
X96505Y197410D01*
X96615Y197364D01*
X96746Y196788D01*
X76975Y177017D01*
X76655Y176884D01*
X76360Y176589D01*
X76200Y176203D01*
Y175785D01*
X76360Y175399D01*
X76655Y175104D01*
X77041Y174944D01*
X77459D01*
X77845Y175104D01*
X78140Y175399D01*
X78272Y175719D01*
X100531Y197977D01*
X100851Y198110D01*
X101146Y198405D01*
X101278Y198725D01*
X102888Y200335D01*
X103438Y200178D01*
X103510Y200005D01*
X103805Y199710D01*
X104191Y199550D01*
X104609D01*
X104995Y199710D01*
X105290Y200005D01*
X105450Y200391D01*
Y200809D01*
X105290Y201195D01*
X104995Y201490D01*
X104822Y201562D01*
X104666Y202112D01*
X114249Y211695D01*
X114448Y211993D01*
X114518Y212344D01*
Y233572D01*
X114650Y233891D01*
Y234309D01*
X114490Y234695D01*
X114403Y234782D01*
X114610Y235282D01*
X116476D01*
X119262Y232496D01*
X119144Y231906D01*
X119105Y231890D01*
X118810Y231595D01*
X118650Y231209D01*
Y230791D01*
X118810Y230405D01*
X119105Y230110D01*
X119491Y229950D01*
X119909D01*
X120295Y230110D01*
X120590Y230405D01*
X120606Y230445D01*
X121196Y230562D01*
X125263Y226495D01*
Y212780D01*
X125131Y212461D01*
Y212043D01*
X125291Y211657D01*
X125586Y211362D01*
X125972Y211202D01*
X126390D01*
X126775Y211362D01*
X127071Y211657D01*
X127231Y212043D01*
Y212461D01*
X127098Y212780D01*
Y225845D01*
X127560Y226037D01*
X131778Y221819D01*
X131910Y221500D01*
X132205Y221204D01*
X132591Y221044D01*
X133009D01*
X133395Y221204D01*
X133690Y221500D01*
X133850Y221885D01*
Y222303D01*
X133690Y222689D01*
X133395Y222985D01*
X133075Y223117D01*
X121486Y234706D01*
X121650Y235051D01*
X121741Y235158D01*
X122118D01*
X122438Y235291D01*
X152912D01*
X168690Y219512D01*
X168546Y218949D01*
X168472Y218918D01*
X141000D01*
X140649Y218848D01*
X140351Y218649D01*
X135225Y213523D01*
X134905Y213390D01*
X134610Y213095D01*
X134450Y212709D01*
Y212291D01*
X134610Y211905D01*
X134905Y211610D01*
X135291Y211450D01*
X135709D01*
X136095Y211610D01*
X136390Y211905D01*
X136522Y212225D01*
X141380Y217082D01*
X168472D01*
X168791Y216950D01*
X169209D01*
X169595Y217110D01*
X169890Y217405D01*
X169949Y217547D01*
X170512Y217690D01*
X174551Y213651D01*
X174451Y213408D01*
Y212592D01*
X174763Y211839D01*
X175339Y211263D01*
X176092Y210951D01*
X176908D01*
X177661Y211263D01*
X178237Y211839D01*
X178494Y212459D01*
X178965D01*
X179339Y211556D01*
X180056Y210839D01*
X180993Y210451D01*
X181302D01*
X181481Y209951D01*
X180919Y209388D01*
X180545Y208488D01*
Y207512D01*
X180919Y206612D01*
X181608Y205922D01*
X182509Y205549D01*
X183484D01*
X184384Y205922D01*
X185074Y206612D01*
X185447Y207512D01*
Y208488D01*
X185074Y209388D01*
X184384Y210078D01*
X183484Y210451D01*
X183214D01*
X183056Y210951D01*
X183661Y211556D01*
X183879Y212082D01*
X184620D01*
X186251Y210451D01*
Y203049D01*
X175000Y191798D01*
Y190500D01*
X176298D01*
X187818Y202020D01*
X188016Y202317D01*
X188086Y202669D01*
Y210831D01*
X188016Y211183D01*
X187818Y211480D01*
X185649Y213649D01*
X185351Y213848D01*
X185000Y213918D01*
X183879D01*
X183661Y214444D01*
X182944Y215161D01*
X182041Y215535D01*
Y216006D01*
X182661Y216263D01*
X183237Y216839D01*
X183549Y217592D01*
Y217785D01*
X183649Y217851D01*
X186091Y220294D01*
X186290Y220591D01*
X186344Y220859D01*
X186390Y220905D01*
X186550Y221291D01*
Y221709D01*
X186390Y222095D01*
X186095Y222390D01*
X185709Y222550D01*
X185291D01*
X184905Y222390D01*
X184610Y222095D01*
X184450Y221709D01*
Y221291D01*
X184463Y221260D01*
X182800Y219598D01*
X182661Y219737D01*
X182041Y219994D01*
Y220465D01*
X182944Y220839D01*
X183661Y221556D01*
X184049Y222493D01*
Y223507D01*
X183661Y224444D01*
X182944Y225161D01*
X182041Y225535D01*
Y226006D01*
X182661Y226263D01*
X183237Y226839D01*
X183338Y227082D01*
X190500D01*
X190851Y227152D01*
X191149Y227351D01*
X194480Y230683D01*
X194980Y230476D01*
Y520D01*
X520D01*
Y255480D01*
X194980D01*
Y248712D01*
D02*
G37*
%LPC*%
G36*
X32209Y252350D02*
X31791D01*
X31405Y252190D01*
X31110Y251895D01*
X30950Y251509D01*
Y251091D01*
X31110Y250705D01*
X31405Y250410D01*
X31791Y250250D01*
X32209D01*
X32595Y250410D01*
X32890Y250705D01*
X33050Y251091D01*
Y251509D01*
X32890Y251895D01*
X32595Y252190D01*
X32209Y252350D01*
D02*
G37*
G36*
X77756Y253111D02*
X77034Y253016D01*
X76362Y252737D01*
X75785Y252294D01*
X75342Y251717D01*
X75063Y251044D01*
X74968Y250323D01*
Y247764D01*
X75063Y247042D01*
X75342Y246370D01*
X75785Y245793D01*
X76362Y245350D01*
X77034Y245071D01*
X77756Y244976D01*
X78478Y245071D01*
X79150Y245350D01*
X79727Y245793D01*
X80170Y246370D01*
X80449Y247042D01*
X80544Y247764D01*
Y250323D01*
X80449Y251044D01*
X80170Y251717D01*
X79727Y252294D01*
X79150Y252737D01*
X78478Y253016D01*
X77756Y253111D01*
D02*
G37*
G36*
X47244D02*
X46523Y253016D01*
X45850Y252737D01*
X45273Y252294D01*
X44830Y251717D01*
X44551Y251044D01*
X44456Y250323D01*
Y247764D01*
X44551Y247042D01*
X44830Y246370D01*
X45273Y245793D01*
X45850Y245350D01*
X46523Y245071D01*
X47244Y244976D01*
X47965Y245071D01*
X48638Y245350D01*
X49215Y245793D01*
X49658Y246370D01*
X49937Y247042D01*
X50032Y247764D01*
Y250323D01*
X49937Y251044D01*
X49658Y251717D01*
X49215Y252294D01*
X48638Y252737D01*
X47965Y253016D01*
X47244Y253111D01*
D02*
G37*
G36*
X82909Y247050D02*
X82491D01*
X82105Y246890D01*
X81810Y246595D01*
X81650Y246209D01*
Y245791D01*
X81810Y245405D01*
X82105Y245110D01*
X82491Y244950D01*
X82909D01*
X83295Y245110D01*
X83590Y245405D01*
X83750Y245791D01*
Y246209D01*
X83590Y246595D01*
X83295Y246890D01*
X82909Y247050D01*
D02*
G37*
G36*
X97809Y245850D02*
X97391D01*
X97005Y245690D01*
X96710Y245395D01*
X96550Y245009D01*
Y244591D01*
X96710Y244205D01*
X97005Y243910D01*
X97391Y243750D01*
X97809D01*
X98195Y243910D01*
X98490Y244205D01*
X98650Y244591D01*
Y245009D01*
X98490Y245395D01*
X98195Y245690D01*
X97809Y245850D01*
D02*
G37*
G36*
X53070Y240291D02*
X52245D01*
X51482Y239976D01*
X50898Y239392D01*
X50583Y238629D01*
Y237886D01*
X50515Y237823D01*
X50352Y237721D01*
X50121Y237639D01*
X49526Y238095D01*
X48710Y238433D01*
X47835Y238548D01*
X46959Y238433D01*
X46143Y238095D01*
X45442Y237558D01*
X44905Y236857D01*
X44567Y236041D01*
X44451Y235165D01*
Y233000D01*
X44567Y232124D01*
X44905Y231308D01*
X45442Y230608D01*
X46143Y230070D01*
X46959Y229732D01*
X47835Y229617D01*
X48710Y229732D01*
X49526Y230070D01*
X50227Y230608D01*
X50765Y231308D01*
X51103Y232124D01*
X51218Y233000D01*
Y235165D01*
X51103Y236041D01*
X51040Y236193D01*
X51463Y236476D01*
X51482Y236458D01*
X52245Y236142D01*
X53070D01*
X53833Y236458D01*
X54416Y237041D01*
X54732Y237804D01*
Y238629D01*
X54416Y239392D01*
X53833Y239976D01*
X53070Y240291D01*
D02*
G37*
G36*
X179488Y240451D02*
X178513D01*
X177612Y240078D01*
X176922Y239388D01*
X176549Y238488D01*
Y237512D01*
X176922Y236612D01*
X177612Y235922D01*
X178513Y235549D01*
X179488D01*
X180388Y235922D01*
X181078Y236612D01*
X181451Y237512D01*
Y238488D01*
X181078Y239388D01*
X180388Y240078D01*
X179488Y240451D01*
D02*
G37*
G36*
X89909Y232050D02*
X89491D01*
X89105Y231890D01*
X88810Y231595D01*
X88650Y231209D01*
Y230791D01*
X88810Y230405D01*
X89105Y230110D01*
X89491Y229950D01*
X89909D01*
X90295Y230110D01*
X90590Y230405D01*
X90750Y230791D01*
Y231209D01*
X90590Y231595D01*
X90295Y231890D01*
X89909Y232050D01*
D02*
G37*
G36*
X62709Y230250D02*
X62291D01*
X61905Y230090D01*
X61610Y229795D01*
X61450Y229409D01*
Y228991D01*
X61610Y228605D01*
X61905Y228310D01*
X62291Y228150D01*
X62709D01*
X63095Y228310D01*
X63390Y228605D01*
X63550Y228991D01*
Y229409D01*
X63390Y229795D01*
X63095Y230090D01*
X62709Y230250D01*
D02*
G37*
G36*
X133609Y227081D02*
X133191D01*
X132805Y226922D01*
X132510Y226626D01*
X132350Y226240D01*
Y225822D01*
X132510Y225437D01*
X132805Y225141D01*
X133191Y224981D01*
X133609D01*
X133995Y225141D01*
X134290Y225437D01*
X134450Y225822D01*
Y226240D01*
X134290Y226626D01*
X133995Y226922D01*
X133609Y227081D01*
D02*
G37*
G36*
X123409Y225113D02*
X122991D01*
X122605Y224953D01*
X122310Y224658D01*
X122150Y224272D01*
Y223854D01*
X122310Y223468D01*
X122605Y223173D01*
X122991Y223013D01*
X123409D01*
X123795Y223173D01*
X124090Y223468D01*
X124250Y223854D01*
Y224272D01*
X124090Y224658D01*
X123795Y224953D01*
X123409Y225113D01*
D02*
G37*
G36*
X117840Y224650D02*
X117422D01*
X117037Y224490D01*
X116741Y224195D01*
X116581Y223809D01*
Y223391D01*
X116741Y223005D01*
X116971Y222776D01*
X116912Y222463D01*
X116817Y222276D01*
X116691D01*
X116305Y222116D01*
X116010Y221821D01*
X115850Y221435D01*
Y221017D01*
X116010Y220631D01*
X116305Y220336D01*
X116691Y220176D01*
X117109D01*
X117495Y220336D01*
X117790Y220631D01*
X117950Y221017D01*
Y221435D01*
X117790Y221821D01*
X117561Y222050D01*
X117619Y222363D01*
X117714Y222550D01*
X117840D01*
X118226Y222710D01*
X118522Y223005D01*
X118681Y223391D01*
Y223809D01*
X118522Y224195D01*
X118226Y224490D01*
X117840Y224650D01*
D02*
G37*
G36*
X110307Y215474D02*
X109889D01*
X109504Y215315D01*
X109208Y215019D01*
X109048Y214633D01*
Y214215D01*
X109208Y213830D01*
X109504Y213534D01*
X109889Y213374D01*
X110307D01*
X110693Y213534D01*
X110989Y213830D01*
X111148Y214215D01*
Y214633D01*
X110989Y215019D01*
X110693Y215315D01*
X110307Y215474D01*
D02*
G37*
G36*
X108135Y213302D02*
X107717D01*
X107331Y213142D01*
X107036Y212847D01*
X106876Y212461D01*
Y212043D01*
X107036Y211657D01*
X107331Y211362D01*
X107717Y211202D01*
X108135D01*
X108521Y211362D01*
X108816Y211657D01*
X108976Y212043D01*
Y212461D01*
X108816Y212847D01*
X108521Y213142D01*
X108135Y213302D01*
D02*
G37*
G36*
X79909Y208650D02*
X79491D01*
X79105Y208490D01*
X78810Y208195D01*
X78650Y207809D01*
Y207391D01*
X78810Y207005D01*
X79105Y206710D01*
X79491Y206550D01*
X79909D01*
X80295Y206710D01*
X80590Y207005D01*
X80750Y207391D01*
Y207809D01*
X80590Y208195D01*
X80295Y208490D01*
X79909Y208650D01*
D02*
G37*
G36*
X175491Y210451D02*
X174516D01*
X173616Y210078D01*
X172926Y209388D01*
X172553Y208488D01*
Y207512D01*
X172926Y206612D01*
X173616Y205922D01*
X174516Y205549D01*
X175491D01*
X176392Y205922D01*
X177082Y206612D01*
X177455Y207512D01*
Y208488D01*
X177082Y209388D01*
X176392Y210078D01*
X175491Y210451D01*
D02*
G37*
G36*
X35209Y206189D02*
X34791D01*
X34405Y206029D01*
X34110Y205733D01*
X33950Y205347D01*
Y204930D01*
X34110Y204544D01*
X34405Y204248D01*
X34791Y204089D01*
X35209D01*
X35595Y204248D01*
X35890Y204544D01*
X36050Y204930D01*
Y205347D01*
X35890Y205733D01*
X35595Y206029D01*
X35209Y206189D01*
D02*
G37*
G36*
X27035Y202471D02*
Y201500D01*
X28006D01*
X27849Y201878D01*
X27413Y202314D01*
X27035Y202471D01*
D02*
G37*
G36*
X26035D02*
X25657Y202314D01*
X25221Y201878D01*
X25064Y201500D01*
X26035D01*
Y202471D01*
D02*
G37*
G36*
X28006Y200500D02*
X27035D01*
Y199529D01*
X27413Y199686D01*
X27849Y200122D01*
X28006Y200500D01*
D02*
G37*
G36*
X26035D02*
X25064D01*
X25221Y200122D01*
X25657Y199686D01*
X26035Y199529D01*
Y200500D01*
D02*
G37*
G36*
X41509Y199889D02*
X41091D01*
X40705Y199729D01*
X40410Y199433D01*
X40250Y199048D01*
Y198630D01*
X40410Y198244D01*
X40705Y197949D01*
X41091Y197789D01*
X41309D01*
X41594Y197633D01*
X41750Y197347D01*
Y197130D01*
X41910Y196744D01*
X42205Y196449D01*
X42591Y196289D01*
X43009D01*
X43395Y196449D01*
X43690Y196744D01*
X43850Y197130D01*
Y197547D01*
X43690Y197933D01*
X43395Y198229D01*
X43009Y198389D01*
X42791D01*
X42506Y198545D01*
X42350Y198830D01*
Y199048D01*
X42190Y199433D01*
X41895Y199729D01*
X41509Y199889D01*
D02*
G37*
G36*
X116213Y192718D02*
X115795D01*
X115409Y192558D01*
X115114Y192262D01*
X114954Y191876D01*
Y191459D01*
X115114Y191073D01*
X115409Y190777D01*
X115795Y190618D01*
X116213D01*
X116599Y190777D01*
X116894Y191073D01*
X117054Y191459D01*
Y191876D01*
X116894Y192262D01*
X116599Y192558D01*
X116213Y192718D01*
D02*
G37*
G36*
X98496D02*
X98079D01*
X97693Y192558D01*
X97397Y192262D01*
X97237Y191876D01*
Y191459D01*
X97397Y191073D01*
X97693Y190777D01*
X98079Y190618D01*
X98496D01*
X98882Y190777D01*
X99177Y191073D01*
X99337Y191459D01*
Y191876D01*
X99177Y192262D01*
X98882Y192558D01*
X98496Y192718D01*
D02*
G37*
G36*
X174000Y191471D02*
X173622Y191314D01*
X173186Y190878D01*
X173029Y190500D01*
X174000D01*
Y191471D01*
D02*
G37*
G36*
X43209Y191550D02*
X42791D01*
X42405Y191390D01*
X42110Y191095D01*
X41950Y190709D01*
Y190291D01*
X42110Y189905D01*
X42405Y189610D01*
X42791Y189450D01*
X43209D01*
X43595Y189610D01*
X43890Y189905D01*
X44050Y190291D01*
Y190709D01*
X43890Y191095D01*
X43595Y191390D01*
X43209Y191550D01*
D02*
G37*
G36*
X106809Y191250D02*
X106391D01*
X106005Y191090D01*
X105710Y190795D01*
X105550Y190409D01*
Y189991D01*
X105710Y189605D01*
X106005Y189310D01*
X106391Y189150D01*
X106809D01*
X107195Y189310D01*
X107490Y189605D01*
X107650Y189991D01*
Y190409D01*
X107490Y190795D01*
X107195Y191090D01*
X106809Y191250D01*
D02*
G37*
G36*
X7236Y194544D02*
X4677D01*
X3956Y194449D01*
X3283Y194170D01*
X2706Y193727D01*
X2263Y193150D01*
X1984Y192478D01*
X1890Y191756D01*
X1984Y191034D01*
X2263Y190362D01*
X2706Y189785D01*
X3283Y189342D01*
X3956Y189063D01*
X4677Y188968D01*
X7236D01*
X7958Y189063D01*
X8630Y189342D01*
X9207Y189785D01*
X9650Y190362D01*
X9929Y191034D01*
X10024Y191756D01*
X9929Y192478D01*
X9650Y193150D01*
X9207Y193727D01*
X8630Y194170D01*
X7958Y194449D01*
X7236Y194544D01*
D02*
G37*
G36*
X102409Y191050D02*
X101991D01*
X101605Y190890D01*
X101310Y190595D01*
X101150Y190209D01*
Y189791D01*
X101310Y189405D01*
X101605Y189110D01*
X101991Y188950D01*
X102409D01*
X102795Y189110D01*
X103090Y189405D01*
X103250Y189791D01*
Y190209D01*
X103090Y190595D01*
X102795Y190890D01*
X102409Y191050D01*
D02*
G37*
G36*
X175971Y189500D02*
X175000D01*
Y188529D01*
X175378Y188686D01*
X175814Y189122D01*
X175971Y189500D01*
D02*
G37*
G36*
X174000D02*
X173029D01*
X173186Y189122D01*
X173622Y188686D01*
X174000Y188529D01*
Y189500D01*
D02*
G37*
G36*
X22000Y194549D02*
X19835D01*
X18959Y194433D01*
X18143Y194095D01*
X17442Y193558D01*
X16905Y192857D01*
X16567Y192041D01*
X16451Y191165D01*
X16567Y190290D01*
X16905Y189474D01*
X17361Y188879D01*
X17278Y188648D01*
X17177Y188485D01*
X17114Y188417D01*
X16371D01*
X15608Y188101D01*
X15024Y187518D01*
X14709Y186755D01*
Y185930D01*
X15024Y185167D01*
X15608Y184584D01*
X16371Y184268D01*
X17196D01*
X17959Y184584D01*
X18542Y185167D01*
X18858Y185930D01*
Y186755D01*
X18542Y187518D01*
X18524Y187537D01*
X18807Y187960D01*
X18959Y187897D01*
X19835Y187782D01*
X22000D01*
X22876Y187897D01*
X23692Y188235D01*
X24392Y188773D01*
X24930Y189474D01*
X25268Y190290D01*
X25383Y191165D01*
X25268Y192041D01*
X24930Y192857D01*
X24392Y193558D01*
X23692Y194095D01*
X22876Y194433D01*
X22000Y194549D01*
D02*
G37*
G36*
X113409Y187050D02*
X112991D01*
X112605Y186890D01*
X112310Y186595D01*
X112150Y186209D01*
Y185791D01*
X112310Y185405D01*
X112605Y185110D01*
X112991Y184950D01*
X113409D01*
X113795Y185110D01*
X114090Y185405D01*
X114250Y185791D01*
Y186209D01*
X114090Y186595D01*
X113795Y186890D01*
X113409Y187050D01*
D02*
G37*
G36*
X158609Y183050D02*
X158191D01*
X157805Y182890D01*
X157510Y182595D01*
X157350Y182209D01*
Y181791D01*
X157510Y181405D01*
X157805Y181110D01*
X158191Y180950D01*
X158609D01*
X158995Y181110D01*
X159290Y181405D01*
X159450Y181791D01*
Y182209D01*
X159290Y182595D01*
X158995Y182890D01*
X158609Y183050D01*
D02*
G37*
G36*
X149209D02*
X148791D01*
X148405Y182890D01*
X148110Y182595D01*
X147950Y182209D01*
Y181791D01*
X148110Y181405D01*
X148405Y181110D01*
X148791Y180950D01*
X149209D01*
X149595Y181110D01*
X149890Y181405D01*
X150050Y181791D01*
Y182209D01*
X149890Y182595D01*
X149595Y182890D01*
X149209Y183050D01*
D02*
G37*
G36*
X103009D02*
X102591D01*
X102205Y182890D01*
X101910Y182595D01*
X101750Y182209D01*
Y181791D01*
X101910Y181405D01*
X102205Y181110D01*
X102591Y180950D01*
X103009D01*
X103395Y181110D01*
X103690Y181405D01*
X103850Y181791D01*
Y182209D01*
X103690Y182595D01*
X103395Y182890D01*
X103009Y183050D01*
D02*
G37*
G36*
X28550Y182450D02*
X28132D01*
X27746Y182290D01*
X27451Y181995D01*
X27291Y181609D01*
Y181191D01*
X27451Y180805D01*
X27746Y180510D01*
X28132Y180350D01*
X28550D01*
X28936Y180510D01*
X29231Y180805D01*
X29391Y181191D01*
Y181609D01*
X29231Y181995D01*
X28936Y182290D01*
X28550Y182450D01*
D02*
G37*
G36*
X133109Y175050D02*
X132691D01*
X132305Y174890D01*
X132010Y174595D01*
X131850Y174209D01*
Y173791D01*
X132010Y173405D01*
X132305Y173110D01*
X132691Y172950D01*
X133109D01*
X133495Y173110D01*
X133790Y173405D01*
X133950Y173791D01*
Y174209D01*
X133790Y174595D01*
X133495Y174890D01*
X133109Y175050D01*
D02*
G37*
G36*
X26552Y172852D02*
Y171882D01*
X27522D01*
X27366Y172260D01*
X26930Y172696D01*
X26552Y172852D01*
D02*
G37*
G36*
X25552D02*
X25174Y172696D01*
X24738Y172260D01*
X24581Y171882D01*
X25552D01*
Y172852D01*
D02*
G37*
G36*
X55709Y171737D02*
Y170767D01*
X56679D01*
X56523Y171145D01*
X56087Y171581D01*
X55709Y171737D01*
D02*
G37*
G36*
X54709D02*
X54331Y171581D01*
X53895Y171145D01*
X53738Y170767D01*
X54709D01*
Y171737D01*
D02*
G37*
G36*
X27522Y170882D02*
X26552D01*
Y169911D01*
X26930Y170068D01*
X27366Y170504D01*
X27522Y170882D01*
D02*
G37*
G36*
X25552D02*
X24581D01*
X24738Y170504D01*
X25174Y170068D01*
X25552Y169911D01*
Y170882D01*
D02*
G37*
G36*
X56679Y169767D02*
X55709D01*
Y168796D01*
X56087Y168953D01*
X56523Y169389D01*
X56679Y169767D01*
D02*
G37*
G36*
X54709D02*
X53738D01*
X53895Y169389D01*
X54331Y168953D01*
X54709Y168796D01*
Y169767D01*
D02*
G37*
G36*
X57109Y166350D02*
X56691D01*
X56305Y166190D01*
X56010Y165895D01*
X55850Y165509D01*
Y165091D01*
X56010Y164705D01*
X56305Y164410D01*
X56691Y164250D01*
X57109D01*
X57495Y164410D01*
X57790Y164705D01*
X57950Y165091D01*
Y165509D01*
X57790Y165895D01*
X57495Y166190D01*
X57109Y166350D01*
D02*
G37*
G36*
X7236Y164032D02*
X4677D01*
X3956Y163937D01*
X3283Y163658D01*
X2706Y163215D01*
X2263Y162638D01*
X1984Y161966D01*
X1890Y161244D01*
X1984Y160522D01*
X2263Y159850D01*
X2706Y159273D01*
X3283Y158830D01*
X3956Y158551D01*
X4677Y158456D01*
X7236D01*
X7958Y158551D01*
X8630Y158830D01*
X9207Y159273D01*
X9650Y159850D01*
X9929Y160522D01*
X10024Y161244D01*
X9929Y161966D01*
X9650Y162638D01*
X9207Y163215D01*
X8630Y163658D01*
X7958Y163937D01*
X7236Y164032D01*
D02*
G37*
G36*
X17196Y168732D02*
X16371D01*
X15608Y168416D01*
X15024Y167833D01*
X14709Y167070D01*
Y166245D01*
X15024Y165482D01*
X15608Y164899D01*
X16371Y164583D01*
X17114D01*
X17177Y164515D01*
X17278Y164351D01*
X17361Y164121D01*
X16905Y163526D01*
X16567Y162710D01*
X16451Y161835D01*
X16567Y160959D01*
X16905Y160143D01*
X17442Y159442D01*
X18143Y158905D01*
X18959Y158567D01*
X19835Y158451D01*
X22000D01*
X22876Y158567D01*
X23692Y158905D01*
X24392Y159442D01*
X24930Y160143D01*
X25268Y160959D01*
X25383Y161835D01*
X25268Y162710D01*
X24930Y163526D01*
X24392Y164227D01*
X23692Y164765D01*
X22876Y165103D01*
X22000Y165218D01*
X19835D01*
X18959Y165103D01*
X18807Y165040D01*
X18524Y165463D01*
X18542Y165482D01*
X18858Y166245D01*
Y167070D01*
X18542Y167833D01*
X17959Y168416D01*
X17196Y168732D01*
D02*
G37*
G36*
X122109Y155050D02*
X121691D01*
X121305Y154890D01*
X121010Y154595D01*
X120850Y154209D01*
Y153791D01*
X121010Y153405D01*
X121305Y153110D01*
X121691Y152950D01*
X122109D01*
X122495Y153110D01*
X122790Y153405D01*
X122950Y153791D01*
Y154209D01*
X122790Y154595D01*
X122495Y154890D01*
X122109Y155050D01*
D02*
G37*
G36*
X180362Y154204D02*
X179945D01*
X179559Y154044D01*
X179263Y153748D01*
X179104Y153363D01*
Y152945D01*
X179263Y152559D01*
X179559Y152263D01*
X179945Y152104D01*
X180362D01*
X180748Y152263D01*
X181044Y152559D01*
X181204Y152945D01*
Y153363D01*
X181044Y153748D01*
X180748Y154044D01*
X180362Y154204D01*
D02*
G37*
G36*
X123609Y148050D02*
X123191D01*
X122805Y147890D01*
X122510Y147595D01*
X122350Y147209D01*
Y146791D01*
X122510Y146405D01*
X122805Y146110D01*
X123191Y145950D01*
X123609D01*
X123995Y146110D01*
X124290Y146405D01*
X124450Y146791D01*
Y147209D01*
X124290Y147595D01*
X123995Y147890D01*
X123609Y148050D01*
D02*
G37*
G36*
X112673Y143550D02*
X112256D01*
X111870Y143390D01*
X111574Y143095D01*
X111414Y142709D01*
Y142291D01*
X111574Y141905D01*
X111870Y141610D01*
X112256Y141450D01*
X112673D01*
X113059Y141610D01*
X113355Y141905D01*
X113514Y142291D01*
Y142709D01*
X113355Y143095D01*
X113059Y143390D01*
X112673Y143550D01*
D02*
G37*
G36*
X24457Y136969D02*
X23543D01*
X22661Y136732D01*
X21870Y136275D01*
X21225Y135630D01*
X20768Y134839D01*
X20531Y133957D01*
Y133043D01*
X20768Y132161D01*
X20801Y132104D01*
X20401Y131797D01*
X18049Y134149D01*
X17751Y134348D01*
X17400Y134418D01*
X17345D01*
X17232Y134839D01*
X16775Y135630D01*
X16130Y136275D01*
X15339Y136732D01*
X14457Y136969D01*
X13543D01*
X12661Y136732D01*
X11870Y136275D01*
X11225Y135630D01*
X10768Y134839D01*
X10531Y133957D01*
Y133043D01*
X10768Y132161D01*
X11225Y131370D01*
X11870Y130725D01*
X12661Y130268D01*
X13543Y130032D01*
X14457D01*
X15339Y130268D01*
X16130Y130725D01*
X16775Y131370D01*
X17050Y131845D01*
X17668Y131934D01*
X19082Y130520D01*
Y121600D01*
X19152Y121249D01*
X19351Y120951D01*
X21351Y118951D01*
X21649Y118752D01*
X22000Y118682D01*
X105620D01*
X107382Y116920D01*
Y108354D01*
X106882Y108020D01*
X106809Y108050D01*
X106391D01*
X106005Y107890D01*
X105710Y107595D01*
X105550Y107209D01*
Y106791D01*
X105710Y106405D01*
X106005Y106110D01*
X106391Y105950D01*
X106809D01*
X106882Y105980D01*
X107349Y105719D01*
X107392Y105653D01*
X107452Y105349D01*
X107651Y105051D01*
X110477Y102225D01*
X110610Y101905D01*
X110905Y101610D01*
X111025Y101560D01*
X110989Y101153D01*
X110953Y101049D01*
X110595Y100900D01*
X110300Y100605D01*
X110140Y100219D01*
Y99801D01*
X110300Y99416D01*
X110595Y99120D01*
X110981Y98960D01*
X111398D01*
X111784Y99120D01*
X112080Y99416D01*
X112240Y99801D01*
Y100219D01*
X112080Y100605D01*
X111784Y100900D01*
X111665Y100950D01*
X111701Y101358D01*
X111737Y101462D01*
X112095Y101610D01*
X112390Y101905D01*
X112550Y102291D01*
Y102709D01*
X112390Y103095D01*
X112095Y103390D01*
X111775Y103523D01*
X109218Y106080D01*
Y117300D01*
X109148Y117651D01*
X108949Y117949D01*
X106649Y120249D01*
X106351Y120448D01*
X106000Y120518D01*
X26630D01*
X26423Y121018D01*
X26776Y121370D01*
X27232Y122161D01*
X27468Y123043D01*
Y123957D01*
X27232Y124839D01*
X26776Y125630D01*
X26130Y126276D01*
X25339Y126732D01*
X24457Y126969D01*
X23543D01*
X22661Y126732D01*
X21870Y126276D01*
X21418Y125823D01*
X20918Y126030D01*
Y130900D01*
X20900Y130987D01*
X21361Y131234D01*
X21870Y130725D01*
X22661Y130268D01*
X23543Y130032D01*
X24457D01*
X25339Y130268D01*
X26130Y130725D01*
X26776Y131370D01*
X27232Y132161D01*
X27468Y133043D01*
Y133957D01*
X27232Y134839D01*
X26776Y135630D01*
X26130Y136275D01*
X25339Y136732D01*
X24457Y136969D01*
D02*
G37*
G36*
X180100Y138818D02*
X172900D01*
X172549Y138748D01*
X172251Y138549D01*
X116651Y82949D01*
X116452Y82651D01*
X116382Y82300D01*
Y66528D01*
X116250Y66209D01*
Y65791D01*
X116410Y65405D01*
X116705Y65110D01*
X117091Y64950D01*
X117509D01*
X117895Y65110D01*
X118190Y65405D01*
X118350Y65791D01*
Y66209D01*
X118218Y66528D01*
Y81920D01*
X170609Y134311D01*
X171057Y134052D01*
X171031Y133957D01*
Y133043D01*
X171268Y132161D01*
X171724Y131370D01*
X172370Y130725D01*
X173161Y130268D01*
X174043Y130032D01*
X174957D01*
X175839Y130268D01*
X176630Y130725D01*
X177276Y131370D01*
X177732Y132161D01*
X177969Y133043D01*
Y133957D01*
X177732Y134839D01*
X177276Y135630D01*
X176630Y136275D01*
X176271Y136482D01*
X176405Y136982D01*
X179720D01*
X181486Y135216D01*
X181268Y134839D01*
X181032Y133957D01*
Y133043D01*
X181268Y132161D01*
X181725Y131370D01*
X182370Y130725D01*
X183161Y130268D01*
X184043Y130032D01*
X184957D01*
X185839Y130268D01*
X186630Y130725D01*
X187276Y131370D01*
X187732Y132161D01*
X187969Y133043D01*
Y133957D01*
X187732Y134839D01*
X187276Y135630D01*
X186630Y136275D01*
X185839Y136732D01*
X184957Y136969D01*
X184043D01*
X183161Y136732D01*
X182784Y136514D01*
X180749Y138549D01*
X180451Y138748D01*
X180100Y138818D01*
D02*
G37*
G36*
X99905Y132050D02*
X99487D01*
X99101Y131890D01*
X98806Y131595D01*
X98646Y131209D01*
Y130791D01*
X98806Y130405D01*
X99101Y130110D01*
X99487Y129950D01*
X99905D01*
X100291Y130110D01*
X100586Y130405D01*
X100746Y130791D01*
Y131209D01*
X100586Y131595D01*
X100291Y131890D01*
X99905Y132050D01*
D02*
G37*
G36*
X187109Y130050D02*
X186691D01*
X186305Y129890D01*
X186010Y129595D01*
X185850Y129209D01*
Y128791D01*
X186010Y128405D01*
X186305Y128110D01*
X186691Y127950D01*
X187109D01*
X187495Y128110D01*
X187790Y128405D01*
X187950Y128791D01*
Y129209D01*
X187790Y129595D01*
X187495Y129890D01*
X187109Y130050D01*
D02*
G37*
G36*
X122109Y124200D02*
X121691D01*
X121305Y124040D01*
X121010Y123745D01*
X120850Y123359D01*
Y122941D01*
X121010Y122555D01*
X121305Y122260D01*
X121691Y122100D01*
X122109D01*
X122495Y122260D01*
X122790Y122555D01*
X122950Y122941D01*
Y123359D01*
X122790Y123745D01*
X122495Y124040D01*
X122109Y124200D01*
D02*
G37*
G36*
X112009Y124050D02*
X111591D01*
X111205Y123890D01*
X110910Y123595D01*
X110750Y123209D01*
Y122791D01*
X110910Y122405D01*
X111205Y122110D01*
X111591Y121950D01*
X112009D01*
X112395Y122110D01*
X112690Y122405D01*
X112850Y122791D01*
Y123209D01*
X112690Y123595D01*
X112395Y123890D01*
X112009Y124050D01*
D02*
G37*
G36*
X184957Y126969D02*
X184043D01*
X183161Y126732D01*
X182370Y126276D01*
X181725Y125630D01*
X181268Y124839D01*
X181032Y123957D01*
Y123043D01*
X181268Y122161D01*
X181486Y121784D01*
X179951Y120249D01*
X179752Y119951D01*
X179682Y119600D01*
Y100134D01*
X179182Y100049D01*
X179049Y100249D01*
X177514Y101784D01*
X177732Y102161D01*
X177969Y103043D01*
Y103957D01*
X177732Y104839D01*
X177276Y105630D01*
X176630Y106275D01*
X175839Y106732D01*
X174957Y106968D01*
X174043D01*
X173161Y106732D01*
X172370Y106275D01*
X171724Y105630D01*
X171268Y104839D01*
X171031Y103957D01*
Y103043D01*
X171268Y102161D01*
X171724Y101370D01*
X172370Y100724D01*
X173161Y100268D01*
X174043Y100031D01*
X174957D01*
X175839Y100268D01*
X176216Y100486D01*
X177482Y99220D01*
Y96130D01*
X176982Y95923D01*
X176630Y96276D01*
X175839Y96732D01*
X174957Y96969D01*
X174043D01*
X173161Y96732D01*
X172370Y96276D01*
X171724Y95630D01*
X171268Y94839D01*
X171155Y94418D01*
X154603D01*
X154252Y94348D01*
X153954Y94149D01*
X122368Y62563D01*
X122049Y62430D01*
X121753Y62135D01*
X121593Y61749D01*
Y61331D01*
X121753Y60945D01*
X122049Y60650D01*
X122434Y60490D01*
X122852D01*
X123238Y60650D01*
X123533Y60945D01*
X123666Y61265D01*
X154983Y92582D01*
X171155D01*
X171268Y92161D01*
X171724Y91370D01*
X172370Y90724D01*
X173161Y90268D01*
X174043Y90031D01*
X174957D01*
X175839Y90268D01*
X176630Y90724D01*
X176982Y91077D01*
X177482Y90870D01*
Y90149D01*
X175620Y88286D01*
X153769D01*
X153417Y88216D01*
X153120Y88017D01*
X124870Y59768D01*
X109161D01*
X108842Y59900D01*
X108424D01*
X108104Y59768D01*
X105957D01*
X105638Y59900D01*
X105220D01*
X104834Y59740D01*
X104538Y59445D01*
X104379Y59059D01*
Y58641D01*
X104538Y58255D01*
X104834Y57960D01*
X105220Y57800D01*
X105638D01*
X105957Y57932D01*
X108104D01*
X108424Y57800D01*
X108842D01*
X109161Y57932D01*
X125250D01*
X125601Y58002D01*
X125899Y58201D01*
X154149Y86451D01*
X171839D01*
X172046Y85951D01*
X171724Y85630D01*
X171268Y84839D01*
X171031Y83957D01*
Y83043D01*
X171268Y82161D01*
X171724Y81370D01*
X172370Y80725D01*
X173161Y80268D01*
X174043Y80032D01*
X174957D01*
X175839Y80268D01*
X176630Y80725D01*
X177276Y81370D01*
X177732Y82161D01*
X177969Y83043D01*
Y83957D01*
X177732Y84839D01*
X177276Y85630D01*
X176732Y86174D01*
X176677Y86532D01*
X176726Y86797D01*
X179049Y89120D01*
X179182Y89319D01*
X179682Y89234D01*
Y72180D01*
X177620Y70118D01*
X176579D01*
X176445Y70618D01*
X176630Y70724D01*
X177276Y71370D01*
X177732Y72161D01*
X177969Y73043D01*
Y73957D01*
X177732Y74839D01*
X177276Y75630D01*
X176630Y76275D01*
X175839Y76732D01*
X174957Y76968D01*
X174043D01*
X173161Y76732D01*
X172370Y76275D01*
X171724Y75630D01*
X171268Y74839D01*
X171031Y73957D01*
Y73043D01*
X171268Y72161D01*
X171724Y71370D01*
X172370Y70724D01*
X172555Y70618D01*
X172421Y70118D01*
X139200D01*
X138849Y70048D01*
X138551Y69849D01*
X131401Y62698D01*
X131081Y62566D01*
X130786Y62271D01*
X130626Y61885D01*
Y61467D01*
X130786Y61081D01*
X131081Y60786D01*
X131467Y60626D01*
X131885D01*
X132271Y60786D01*
X132566Y61081D01*
X132698Y61401D01*
X139580Y68282D01*
X178000D01*
X178351Y68352D01*
X178649Y68551D01*
X181249Y71151D01*
X181262Y71171D01*
X181361Y71214D01*
X181874Y71221D01*
X182370Y70724D01*
X183161Y70268D01*
X184043Y70031D01*
X184957D01*
X185839Y70268D01*
X186630Y70724D01*
X187276Y71370D01*
X187732Y72161D01*
X187969Y73043D01*
Y73957D01*
X187732Y74839D01*
X187276Y75630D01*
X186630Y76275D01*
X185839Y76732D01*
X184957Y76968D01*
X184043D01*
X183161Y76732D01*
X182370Y76275D01*
X182018Y75923D01*
X181518Y76130D01*
Y80870D01*
X182018Y81077D01*
X182370Y80725D01*
X183161Y80268D01*
X184043Y80032D01*
X184957D01*
X185839Y80268D01*
X186630Y80725D01*
X187276Y81370D01*
X187732Y82161D01*
X187969Y83043D01*
Y83957D01*
X187732Y84839D01*
X187276Y85630D01*
X186630Y86276D01*
X185839Y86732D01*
X184957Y86968D01*
X184043D01*
X183161Y86732D01*
X182370Y86276D01*
X182018Y85923D01*
X181518Y86130D01*
Y90870D01*
X182018Y91077D01*
X182370Y90724D01*
X183161Y90268D01*
X184043Y90031D01*
X184957D01*
X185839Y90268D01*
X186630Y90724D01*
X187276Y91370D01*
X187732Y92161D01*
X187969Y93043D01*
Y93957D01*
X187732Y94839D01*
X187276Y95630D01*
X186630Y96276D01*
X185839Y96732D01*
X184957Y96969D01*
X184043D01*
X183161Y96732D01*
X182370Y96276D01*
X182018Y95923D01*
X181518Y96130D01*
Y100870D01*
X182018Y101077D01*
X182370Y100724D01*
X183161Y100268D01*
X184043Y100031D01*
X184957D01*
X185839Y100268D01*
X186630Y100724D01*
X187276Y101370D01*
X187732Y102161D01*
X187969Y103043D01*
Y103957D01*
X187732Y104839D01*
X187276Y105630D01*
X186630Y106275D01*
X185839Y106732D01*
X184957Y106968D01*
X184043D01*
X183161Y106732D01*
X182370Y106275D01*
X182018Y105923D01*
X181518Y106130D01*
Y110870D01*
X182018Y111077D01*
X182370Y110724D01*
X183161Y110268D01*
X184043Y110031D01*
X184957D01*
X185839Y110268D01*
X186630Y110724D01*
X187276Y111370D01*
X187732Y112161D01*
X187969Y113043D01*
Y113957D01*
X187732Y114839D01*
X187276Y115630D01*
X186630Y116276D01*
X185839Y116732D01*
X184957Y116969D01*
X184043D01*
X183161Y116732D01*
X182370Y116276D01*
X182018Y115923D01*
X181518Y116130D01*
Y119220D01*
X182784Y120486D01*
X183161Y120268D01*
X184043Y120031D01*
X184957D01*
X185839Y120268D01*
X186630Y120724D01*
X187276Y121370D01*
X187732Y122161D01*
X187969Y123043D01*
Y123957D01*
X187732Y124839D01*
X187276Y125630D01*
X186630Y126276D01*
X185839Y126732D01*
X184957Y126969D01*
D02*
G37*
G36*
X174957D02*
X174043D01*
X173161Y126732D01*
X172370Y126276D01*
X171724Y125630D01*
X171268Y124839D01*
X171031Y123957D01*
Y123043D01*
X171268Y122161D01*
X171724Y121370D01*
X172370Y120724D01*
X173161Y120268D01*
X174043Y120031D01*
X174957D01*
X175839Y120268D01*
X176630Y120724D01*
X177276Y121370D01*
X177732Y122161D01*
X177969Y123043D01*
Y123957D01*
X177732Y124839D01*
X177276Y125630D01*
X176630Y126276D01*
X175839Y126732D01*
X174957Y126969D01*
D02*
G37*
G36*
X14457D02*
X13543D01*
X12661Y126732D01*
X11870Y126276D01*
X11225Y125630D01*
X10768Y124839D01*
X10531Y123957D01*
Y123043D01*
X10768Y122161D01*
X11225Y121370D01*
X11870Y120724D01*
X12661Y120268D01*
X13543Y120031D01*
X14457D01*
X15339Y120268D01*
X16130Y120724D01*
X16775Y121370D01*
X17232Y122161D01*
X17469Y123043D01*
Y123957D01*
X17232Y124839D01*
X16775Y125630D01*
X16130Y126276D01*
X15339Y126732D01*
X14457Y126969D01*
D02*
G37*
G36*
X119709Y119550D02*
X119291D01*
X118905Y119390D01*
X118610Y119095D01*
X118450Y118709D01*
Y118291D01*
X118610Y117905D01*
X118905Y117610D01*
X119291Y117450D01*
X119709D01*
X120095Y117610D01*
X120390Y117905D01*
X120550Y118291D01*
Y118709D01*
X120390Y119095D01*
X120095Y119390D01*
X119709Y119550D01*
D02*
G37*
G36*
X116709Y119050D02*
X116291D01*
X115905Y118890D01*
X115610Y118595D01*
X115450Y118209D01*
Y117791D01*
X115610Y117405D01*
X115905Y117110D01*
X116291Y116950D01*
X116709D01*
X117095Y117110D01*
X117390Y117405D01*
X117550Y117791D01*
Y118209D01*
X117390Y118595D01*
X117095Y118890D01*
X116709Y119050D01*
D02*
G37*
G36*
X52209Y114550D02*
X51791D01*
X51472Y114418D01*
X44528D01*
X44209Y114550D01*
X43791D01*
X43405Y114390D01*
X43110Y114095D01*
X42950Y113709D01*
Y113291D01*
X43110Y112905D01*
X43405Y112610D01*
X43791Y112450D01*
X44209D01*
X44528Y112582D01*
X51472D01*
X51791Y112450D01*
X52209D01*
X52595Y112610D01*
X52890Y112905D01*
X53050Y113291D01*
Y113709D01*
X52890Y114095D01*
X52595Y114390D01*
X52209Y114550D01*
D02*
G37*
G36*
X113652Y115756D02*
X113234D01*
X112848Y115597D01*
X112552Y115301D01*
X112393Y114915D01*
Y114497D01*
X112552Y114112D01*
X112848Y113816D01*
X113234Y113656D01*
X113652D01*
X114037Y113816D01*
X114333Y114112D01*
X114493Y114497D01*
Y114915D01*
X114333Y115301D01*
X114037Y115597D01*
X113652Y115756D01*
D02*
G37*
G36*
X174957Y116969D02*
X174043D01*
X173161Y116732D01*
X172370Y116276D01*
X171724Y115630D01*
X171268Y114839D01*
X171031Y113957D01*
Y113043D01*
X171268Y112161D01*
X171724Y111370D01*
X172370Y110724D01*
X173161Y110268D01*
X174043Y110031D01*
X174957D01*
X175839Y110268D01*
X176630Y110724D01*
X177276Y111370D01*
X177732Y112161D01*
X177969Y113043D01*
Y113957D01*
X177732Y114839D01*
X177276Y115630D01*
X176630Y116276D01*
X175839Y116732D01*
X174957Y116969D01*
D02*
G37*
G36*
X117309Y111502D02*
X116891D01*
X116505Y111342D01*
X116210Y111046D01*
X116050Y110661D01*
Y110243D01*
X116210Y109857D01*
X116505Y109561D01*
X116891Y109402D01*
X117309D01*
X117695Y109561D01*
X117990Y109857D01*
X118150Y110243D01*
Y110661D01*
X117990Y111046D01*
X117695Y111342D01*
X117309Y111502D01*
D02*
G37*
G36*
X47171Y107000D02*
X46200D01*
Y106029D01*
X46578Y106186D01*
X47014Y106622D01*
X47171Y107000D01*
D02*
G37*
G36*
X45200D02*
X44229D01*
X44386Y106622D01*
X44822Y106186D01*
X45200Y106029D01*
Y107000D01*
D02*
G37*
G36*
X125209Y103050D02*
X124791D01*
X124405Y102890D01*
X124110Y102595D01*
X123950Y102209D01*
Y101791D01*
X124110Y101405D01*
X124405Y101110D01*
X124791Y100950D01*
X125209D01*
X125595Y101110D01*
X125890Y101405D01*
X126050Y101791D01*
Y102209D01*
X125890Y102595D01*
X125595Y102890D01*
X125209Y103050D01*
D02*
G37*
G36*
X105509Y97250D02*
X105091D01*
X104705Y97090D01*
X104410Y96795D01*
X104250Y96409D01*
Y95991D01*
X104410Y95605D01*
X104705Y95310D01*
X105091Y95150D01*
X105509D01*
X105895Y95310D01*
X106190Y95605D01*
X106350Y95991D01*
Y96409D01*
X106190Y96795D01*
X105895Y97090D01*
X105509Y97250D01*
D02*
G37*
G36*
X34809Y96450D02*
X34391D01*
X34005Y96290D01*
X33710Y95995D01*
X33550Y95609D01*
Y95191D01*
X33710Y94805D01*
X34005Y94510D01*
X34391Y94350D01*
X34809D01*
X35195Y94510D01*
X35490Y94805D01*
X35650Y95191D01*
Y95609D01*
X35490Y95995D01*
X35195Y96290D01*
X34809Y96450D01*
D02*
G37*
G36*
X16000Y118318D02*
X11500D01*
X11149Y118248D01*
X10851Y118049D01*
X9451Y116649D01*
X9252Y116351D01*
X9182Y116000D01*
Y111000D01*
X9252Y110649D01*
X9451Y110351D01*
X12611Y107191D01*
X12472Y106623D01*
X11870Y106275D01*
X11225Y105630D01*
X10768Y104839D01*
X10531Y103957D01*
Y103043D01*
X10768Y102161D01*
X11225Y101370D01*
X11870Y100724D01*
X12661Y100268D01*
X13092Y100153D01*
X13152Y99849D01*
X13351Y99551D01*
X13649Y99352D01*
X14000Y99282D01*
X17220D01*
X17551Y98951D01*
X17849Y98752D01*
X18200Y98682D01*
X69105D01*
X69450Y98209D01*
Y97791D01*
X69610Y97405D01*
X69905Y97110D01*
X70291Y96950D01*
X70709D01*
X71095Y97110D01*
X71390Y97405D01*
X71550Y97791D01*
Y98209D01*
X71895Y98682D01*
X83620D01*
X85982Y96320D01*
Y89323D01*
X85482Y89115D01*
X80449Y94149D01*
X80151Y94348D01*
X79800Y94418D01*
X78600D01*
X78249Y94348D01*
X77951Y94149D01*
X75362Y91560D01*
X74799Y91703D01*
X74740Y91845D01*
X74445Y92140D01*
X74059Y92300D01*
X73641D01*
X73255Y92140D01*
X72960Y91845D01*
X72800Y91459D01*
Y91041D01*
X72960Y90655D01*
X73255Y90360D01*
X73357Y90318D01*
X73258Y89818D01*
X25511D01*
X25447Y89985D01*
X25425Y90318D01*
X26130Y90724D01*
X26776Y91370D01*
X27232Y92161D01*
X27468Y93043D01*
Y93957D01*
X27232Y94839D01*
X26776Y95630D01*
X26130Y96276D01*
X25339Y96732D01*
X24457Y96969D01*
X23543D01*
X22661Y96732D01*
X21870Y96276D01*
X21225Y95630D01*
X20768Y94839D01*
X20531Y93957D01*
Y93043D01*
X20768Y92161D01*
X21225Y91370D01*
X21870Y90724D01*
X22575Y90318D01*
X22553Y89985D01*
X22489Y89818D01*
X18980D01*
X17014Y91784D01*
X17232Y92161D01*
X17469Y93043D01*
Y93957D01*
X17232Y94839D01*
X16775Y95630D01*
X16130Y96276D01*
X15339Y96732D01*
X14457Y96969D01*
X13543D01*
X12661Y96732D01*
X11870Y96276D01*
X11225Y95630D01*
X10768Y94839D01*
X10531Y93957D01*
Y93043D01*
X10768Y92161D01*
X11225Y91370D01*
X11870Y90724D01*
X12661Y90268D01*
X13543Y90031D01*
X14457D01*
X15339Y90268D01*
X15716Y90486D01*
X17951Y88251D01*
X18249Y88052D01*
X18600Y87982D01*
X74000D01*
X74351Y88052D01*
X74649Y88251D01*
X77491Y91093D01*
X77910Y91010D01*
X78205Y90715D01*
X78258Y90536D01*
X78291Y90050D01*
X77905Y89890D01*
X77610Y89595D01*
X77450Y89209D01*
Y88791D01*
X77610Y88405D01*
X77905Y88110D01*
X78291Y87950D01*
X78709D01*
X79095Y88110D01*
X79390Y88405D01*
X79550Y88791D01*
Y88850D01*
X80050Y89057D01*
X82553Y86554D01*
Y76829D01*
X82623Y76478D01*
X82822Y76180D01*
X86601Y72401D01*
X86899Y72202D01*
X87250Y72132D01*
X94233D01*
X94270Y72103D01*
X94526Y71632D01*
X94477Y71515D01*
X91880Y68918D01*
X64869D01*
X64677Y69380D01*
X66275Y70977D01*
X66595Y71110D01*
X66890Y71405D01*
X67023Y71725D01*
X79375Y84078D01*
X79695Y84210D01*
X79990Y84505D01*
X80150Y84891D01*
Y85309D01*
X79990Y85695D01*
X79695Y85990D01*
X79309Y86150D01*
X78891D01*
X78505Y85990D01*
X78210Y85695D01*
X78078Y85375D01*
X65725Y73023D01*
X65405Y72890D01*
X65110Y72595D01*
X64978Y72275D01*
X63120Y70418D01*
X26530D01*
X26323Y70918D01*
X26776Y71370D01*
X27232Y72161D01*
X27468Y73043D01*
Y73957D01*
X27232Y74839D01*
X26776Y75630D01*
X26130Y76275D01*
X25339Y76732D01*
X24457Y76968D01*
X23543D01*
X22661Y76732D01*
X21870Y76275D01*
X21225Y75630D01*
X20768Y74839D01*
X20531Y73957D01*
Y73043D01*
X20768Y72161D01*
X21225Y71370D01*
X21677Y70918D01*
X21470Y70418D01*
X18380D01*
X17014Y71784D01*
X17232Y72161D01*
X17469Y73043D01*
Y73957D01*
X17232Y74839D01*
X16775Y75630D01*
X16130Y76275D01*
X15339Y76732D01*
X14457Y76968D01*
X13543D01*
X12661Y76732D01*
X11870Y76275D01*
X11518Y75923D01*
X11018Y76130D01*
Y80870D01*
X11518Y81077D01*
X11870Y80725D01*
X12661Y80268D01*
X13543Y80032D01*
X14457D01*
X15339Y80268D01*
X16130Y80725D01*
X16775Y81370D01*
X17232Y82161D01*
X17469Y83043D01*
Y83957D01*
X17232Y84839D01*
X16775Y85630D01*
X16130Y86276D01*
X15339Y86732D01*
X14457Y86968D01*
X13543D01*
X12661Y86732D01*
X11870Y86276D01*
X11225Y85630D01*
X10768Y84839D01*
X10655Y84418D01*
X10600D01*
X10249Y84348D01*
X9951Y84149D01*
X9451Y83649D01*
X9252Y83351D01*
X9182Y83000D01*
Y70000D01*
X9252Y69649D01*
X9451Y69351D01*
X11451Y67351D01*
X11749Y67152D01*
X12100Y67082D01*
X12268D01*
X12402Y66582D01*
X11870Y66276D01*
X11225Y65630D01*
X10768Y64839D01*
X10531Y63957D01*
Y63043D01*
X10768Y62161D01*
X11225Y61370D01*
X11870Y60725D01*
X12661Y60268D01*
X13543Y60031D01*
X14457D01*
X15339Y60268D01*
X16130Y60725D01*
X16775Y61370D01*
X17232Y62161D01*
X17469Y63043D01*
Y63957D01*
X17232Y64839D01*
X16775Y65630D01*
X16130Y66276D01*
X15598Y66582D01*
X15732Y67082D01*
X22268D01*
X22402Y66582D01*
X21870Y66276D01*
X21225Y65630D01*
X20768Y64839D01*
X20531Y63957D01*
Y63043D01*
X20768Y62161D01*
X21225Y61370D01*
X21870Y60725D01*
X22661Y60268D01*
X23543Y60031D01*
X24457D01*
X25339Y60268D01*
X26130Y60725D01*
X26776Y61370D01*
X27232Y62161D01*
X27345Y62582D01*
X31000D01*
X31351Y62652D01*
X31649Y62851D01*
X33275Y64477D01*
X33595Y64610D01*
X33890Y64905D01*
X34050Y65291D01*
Y65709D01*
X33890Y66095D01*
X33595Y66390D01*
X33209Y66550D01*
X32791D01*
X32405Y66390D01*
X32110Y66095D01*
X31977Y65775D01*
X30620Y64418D01*
X27345D01*
X27232Y64839D01*
X26776Y65630D01*
X26130Y66276D01*
X25598Y66582D01*
X25732Y67082D01*
X92260D01*
X92611Y67152D01*
X92909Y67351D01*
X95775Y70218D01*
X96095Y70350D01*
X96390Y70645D01*
X96466Y70829D01*
X96980Y70981D01*
X97027Y70975D01*
X98382Y69620D01*
Y56000D01*
X98452Y55649D01*
X98651Y55351D01*
X101151Y52851D01*
X101449Y52652D01*
X101800Y52582D01*
X171155D01*
X171268Y52161D01*
X171724Y51370D01*
X172370Y50725D01*
X173161Y50268D01*
X174043Y50032D01*
X174957D01*
X175839Y50268D01*
X176630Y50725D01*
X177276Y51370D01*
X177732Y52161D01*
X177969Y53043D01*
Y53957D01*
X177732Y54839D01*
X177276Y55630D01*
X176630Y56275D01*
X175839Y56732D01*
X174957Y56968D01*
X174043D01*
X173161Y56732D01*
X172370Y56275D01*
X171724Y55630D01*
X171268Y54839D01*
X171155Y54418D01*
X102180D01*
X100218Y56380D01*
Y70000D01*
X100148Y70351D01*
X99949Y70649D01*
X97410Y73188D01*
X97553Y73751D01*
X97695Y73810D01*
X97990Y74105D01*
X98150Y74491D01*
Y74909D01*
X97990Y75295D01*
X97695Y75590D01*
X97375Y75722D01*
X95949Y77149D01*
X95651Y77348D01*
X95300Y77418D01*
X90580D01*
X87818Y80180D01*
Y86990D01*
X87957Y87105D01*
X88318Y87263D01*
X88591Y87150D01*
X89009D01*
X89395Y87310D01*
X89690Y87605D01*
X89850Y87991D01*
Y88409D01*
X89690Y88795D01*
X89395Y89090D01*
X89009Y89250D01*
X88591D01*
X88318Y89137D01*
X87957Y89295D01*
X87818Y89410D01*
Y96700D01*
X87748Y97051D01*
X87549Y97349D01*
X85277Y99620D01*
X85469Y100082D01*
X92420D01*
X94882Y97620D01*
Y87816D01*
X94750Y87496D01*
Y87078D01*
X94910Y86692D01*
X95205Y86397D01*
X95591Y86237D01*
X96009D01*
X96395Y86397D01*
X96690Y86692D01*
X96850Y87078D01*
Y87496D01*
X96718Y87816D01*
Y93234D01*
X97041Y93450D01*
X97459D01*
X97845Y93610D01*
X98140Y93905D01*
X98300Y94291D01*
Y94709D01*
X98140Y95095D01*
X97845Y95390D01*
X97459Y95550D01*
X97041D01*
X96718Y95766D01*
Y98000D01*
X96648Y98351D01*
X96449Y98649D01*
X93449Y101649D01*
X93151Y101848D01*
X92800Y101918D01*
X76510D01*
X76303Y102418D01*
X76390Y102505D01*
X76550Y102891D01*
Y103309D01*
X76390Y103695D01*
X76095Y103990D01*
X75709Y104150D01*
X75291D01*
X74905Y103990D01*
X74610Y103695D01*
X74450Y103309D01*
Y102891D01*
X74610Y102505D01*
X74697Y102418D01*
X74490Y101918D01*
X40980D01*
X35327Y107570D01*
X35519Y108032D01*
X44000D01*
X44022Y108000D01*
X47378D01*
X47400Y108032D01*
X94084D01*
X94450Y107609D01*
Y107191D01*
X94610Y106805D01*
X94905Y106510D01*
X95291Y106350D01*
X95709D01*
X96095Y106510D01*
X96390Y106805D01*
X96550Y107191D01*
Y107609D01*
X96916Y108032D01*
X98208D01*
X111996Y94244D01*
X112129Y93924D01*
X112424Y93629D01*
X112810Y93469D01*
X113228D01*
X113614Y93629D01*
X113909Y93924D01*
X114069Y94310D01*
Y94728D01*
X113909Y95114D01*
X113614Y95409D01*
X113294Y95542D01*
X101311Y107525D01*
X101588Y107945D01*
X101593Y107950D01*
X102009D01*
X102395Y108110D01*
X102690Y108405D01*
X102850Y108791D01*
Y109209D01*
X102690Y109595D01*
X102395Y109890D01*
X102009Y110050D01*
X101591D01*
X101205Y109890D01*
X100910Y109595D01*
X100750Y109209D01*
Y108793D01*
X100745Y108788D01*
X100325Y108511D01*
X99237Y109599D01*
X98939Y109798D01*
X98588Y109868D01*
X25646D01*
X25512Y110368D01*
X26130Y110724D01*
X26776Y111370D01*
X27232Y112161D01*
X27468Y113043D01*
Y113957D01*
X27232Y114839D01*
X26776Y115630D01*
X26130Y116276D01*
X25339Y116732D01*
X24457Y116969D01*
X23543D01*
X22661Y116732D01*
X21870Y116276D01*
X21225Y115630D01*
X20768Y114839D01*
X20704Y114601D01*
X20175Y114522D01*
X16649Y118049D01*
X16351Y118248D01*
X16000Y118318D01*
D02*
G37*
G36*
X115709Y93050D02*
X115291D01*
X114905Y92890D01*
X114610Y92595D01*
X114450Y92209D01*
Y91791D01*
X114610Y91405D01*
X114905Y91110D01*
X115291Y90950D01*
X115709D01*
X116095Y91110D01*
X116390Y91405D01*
X116550Y91791D01*
Y92209D01*
X116390Y92595D01*
X116095Y92890D01*
X115709Y93050D01*
D02*
G37*
G36*
X100981Y87012D02*
X100563D01*
X100177Y86852D01*
X99882Y86557D01*
X99722Y86171D01*
Y85753D01*
X99882Y85367D01*
X100177Y85072D01*
X100563Y84912D01*
X100981D01*
X101367Y85072D01*
X101662Y85367D01*
X101822Y85753D01*
Y86171D01*
X101662Y86557D01*
X101367Y86852D01*
X100981Y87012D01*
D02*
G37*
G36*
X70709Y84121D02*
X70291D01*
X69905Y83961D01*
X69610Y83666D01*
X69450Y83280D01*
Y82863D01*
X69610Y82477D01*
X69905Y82181D01*
X70291Y82021D01*
X70709D01*
X71095Y82181D01*
X71390Y82477D01*
X71550Y82863D01*
Y83280D01*
X71390Y83666D01*
X71095Y83961D01*
X70709Y84121D01*
D02*
G37*
G36*
X90459Y83750D02*
X90041D01*
X89655Y83590D01*
X89360Y83295D01*
X89200Y82909D01*
Y82491D01*
X89360Y82105D01*
X89655Y81810D01*
X90041Y81650D01*
X90459D01*
X90845Y81810D01*
X91140Y82105D01*
X91300Y82491D01*
Y82909D01*
X91140Y83295D01*
X90845Y83590D01*
X90459Y83750D01*
D02*
G37*
G36*
X24457Y86968D02*
X23543D01*
X22661Y86732D01*
X21870Y86276D01*
X21225Y85630D01*
X20768Y84839D01*
X20531Y83957D01*
Y83043D01*
X20768Y82161D01*
X21225Y81370D01*
X21870Y80725D01*
X22661Y80268D01*
X23543Y80032D01*
X24457D01*
X25339Y80268D01*
X26130Y80725D01*
X26776Y81370D01*
X27232Y82161D01*
X27468Y83043D01*
Y83957D01*
X27232Y84839D01*
X26776Y85630D01*
X26130Y86276D01*
X25339Y86732D01*
X24457Y86968D01*
D02*
G37*
G36*
X94059Y82100D02*
X93641D01*
X93255Y81940D01*
X92960Y81645D01*
X92800Y81259D01*
Y80841D01*
X92960Y80455D01*
X93255Y80160D01*
X93641Y80000D01*
X94059D01*
X94445Y80160D01*
X94740Y80455D01*
X94900Y80841D01*
Y81259D01*
X94740Y81645D01*
X94445Y81940D01*
X94059Y82100D01*
D02*
G37*
G36*
X96109Y79950D02*
X95691D01*
X95305Y79790D01*
X95010Y79495D01*
X94850Y79109D01*
Y78691D01*
X95010Y78305D01*
X95305Y78010D01*
X95691Y77850D01*
X96109D01*
X96495Y78010D01*
X96790Y78305D01*
X96950Y78691D01*
Y79109D01*
X96790Y79495D01*
X96495Y79790D01*
X96109Y79950D01*
D02*
G37*
G36*
X134280Y79550D02*
X133862D01*
X133477Y79390D01*
X133181Y79095D01*
X133021Y78709D01*
Y78291D01*
X133181Y77905D01*
X133477Y77610D01*
X133862Y77450D01*
X134280D01*
X134666Y77610D01*
X134962Y77905D01*
X135121Y78291D01*
Y78709D01*
X134962Y79095D01*
X134666Y79390D01*
X134280Y79550D01*
D02*
G37*
G36*
X131350Y79491D02*
X130932D01*
X130546Y79331D01*
X130251Y79036D01*
X130091Y78650D01*
Y78232D01*
X130251Y77846D01*
X130546Y77551D01*
X130932Y77391D01*
X131350D01*
X131736Y77551D01*
X132031Y77846D01*
X132191Y78232D01*
Y78650D01*
X132031Y79036D01*
X131736Y79331D01*
X131350Y79491D01*
D02*
G37*
G36*
X102309Y78750D02*
X101891D01*
X101505Y78590D01*
X101210Y78295D01*
X101050Y77909D01*
Y77491D01*
X101210Y77105D01*
X101505Y76810D01*
X101891Y76650D01*
X102309D01*
X102695Y76810D01*
X102990Y77105D01*
X103150Y77491D01*
Y77909D01*
X102990Y78295D01*
X102695Y78590D01*
X102309Y78750D01*
D02*
G37*
G36*
X49909Y76650D02*
X49491D01*
X49172Y76518D01*
X43179D01*
X42828Y76448D01*
X42783Y76418D01*
X37028D01*
X36709Y76550D01*
X36291D01*
X35905Y76390D01*
X35610Y76095D01*
X35450Y75709D01*
Y75291D01*
X35610Y74905D01*
X35905Y74610D01*
X36291Y74450D01*
X36709D01*
X37028Y74582D01*
X43079D01*
X43430Y74652D01*
X43475Y74682D01*
X49172D01*
X49491Y74550D01*
X49909D01*
X50295Y74710D01*
X50590Y75005D01*
X50750Y75391D01*
Y75809D01*
X50590Y76195D01*
X50295Y76490D01*
X49909Y76650D01*
D02*
G37*
G36*
X105459Y76000D02*
X105041D01*
X104655Y75840D01*
X104360Y75545D01*
X104200Y75159D01*
Y74741D01*
X104360Y74355D01*
X104655Y74060D01*
X105041Y73900D01*
X105459D01*
X105845Y74060D01*
X106140Y74355D01*
X106300Y74741D01*
Y75159D01*
X106140Y75545D01*
X105845Y75840D01*
X105459Y76000D01*
D02*
G37*
G36*
X149209Y74550D02*
X148791D01*
X148405Y74390D01*
X148110Y74095D01*
X147950Y73709D01*
Y73291D01*
X148110Y72905D01*
X148405Y72610D01*
X148791Y72450D01*
X149209D01*
X149595Y72610D01*
X149890Y72905D01*
X150050Y73291D01*
Y73709D01*
X149890Y74095D01*
X149595Y74390D01*
X149209Y74550D01*
D02*
G37*
G36*
X121101Y70050D02*
X120683D01*
X120297Y69890D01*
X120002Y69595D01*
X119842Y69209D01*
Y68791D01*
X120002Y68405D01*
X120297Y68110D01*
X120683Y67950D01*
X121101D01*
X121487Y68110D01*
X121782Y68405D01*
X121942Y68791D01*
Y69209D01*
X121782Y69595D01*
X121487Y69890D01*
X121101Y70050D01*
D02*
G37*
G36*
X96509Y66950D02*
X96091D01*
X95705Y66790D01*
X95410Y66495D01*
X95250Y66109D01*
Y65691D01*
X95410Y65305D01*
X95705Y65010D01*
X96091Y64850D01*
X96509D01*
X96895Y65010D01*
X97190Y65305D01*
X97350Y65691D01*
Y66109D01*
X97190Y66495D01*
X96895Y66790D01*
X96509Y66950D01*
D02*
G37*
G36*
X84909Y65950D02*
X84491D01*
X84105Y65790D01*
X83810Y65495D01*
X83650Y65109D01*
Y64691D01*
X83810Y64305D01*
X84105Y64010D01*
X84491Y63850D01*
X84909D01*
X85295Y64010D01*
X85590Y64305D01*
X85750Y64691D01*
Y65109D01*
X85590Y65495D01*
X85295Y65790D01*
X84909Y65950D01*
D02*
G37*
G36*
X82209Y63350D02*
X81791D01*
X81405Y63190D01*
X81110Y62895D01*
X80950Y62509D01*
Y62091D01*
X81110Y61705D01*
X81405Y61410D01*
X81791Y61250D01*
X82209D01*
X82595Y61410D01*
X82890Y61705D01*
X83050Y62091D01*
Y62509D01*
X82890Y62895D01*
X82595Y63190D01*
X82209Y63350D01*
D02*
G37*
G36*
X184957Y66969D02*
X184043D01*
X183161Y66732D01*
X182370Y66276D01*
X181725Y65630D01*
X181268Y64839D01*
X181032Y63957D01*
Y63043D01*
X181268Y62161D01*
X181725Y61370D01*
X182370Y60725D01*
X183161Y60268D01*
X184043Y60031D01*
X184957D01*
X185839Y60268D01*
X186630Y60725D01*
X187276Y61370D01*
X187732Y62161D01*
X187969Y63043D01*
Y63957D01*
X187732Y64839D01*
X187276Y65630D01*
X186630Y66276D01*
X185839Y66732D01*
X184957Y66969D01*
D02*
G37*
G36*
X174957D02*
X174043D01*
X173161Y66732D01*
X172370Y66276D01*
X171724Y65630D01*
X171268Y64839D01*
X171031Y63957D01*
Y63043D01*
X171268Y62161D01*
X171724Y61370D01*
X172370Y60725D01*
X173161Y60268D01*
X174043Y60031D01*
X174957D01*
X175839Y60268D01*
X176630Y60725D01*
X177276Y61370D01*
X177732Y62161D01*
X177969Y63043D01*
Y63957D01*
X177732Y64839D01*
X177276Y65630D01*
X176630Y66276D01*
X175839Y66732D01*
X174957Y66969D01*
D02*
G37*
G36*
X94780Y60800D02*
X94362D01*
X93977Y60640D01*
X93681Y60345D01*
X93521Y59959D01*
Y59541D01*
X93681Y59155D01*
X93977Y58860D01*
X94362Y58700D01*
X94780D01*
X95166Y58860D01*
X95461Y59155D01*
X95621Y59541D01*
Y59959D01*
X95461Y60345D01*
X95166Y60640D01*
X94780Y60800D01*
D02*
G37*
G36*
X87309Y58550D02*
X86891D01*
X86505Y58390D01*
X86210Y58095D01*
X86050Y57709D01*
Y57291D01*
X86210Y56905D01*
X86505Y56610D01*
X86891Y56450D01*
X87309D01*
X87695Y56610D01*
X87990Y56905D01*
X88150Y57291D01*
Y57709D01*
X87990Y58095D01*
X87695Y58390D01*
X87309Y58550D01*
D02*
G37*
G36*
X24522Y57468D02*
X24500D01*
Y54000D01*
X27968D01*
Y54023D01*
X27698Y55032D01*
X27176Y55937D01*
X26437Y56676D01*
X25532Y57198D01*
X24522Y57468D01*
D02*
G37*
G36*
X23500D02*
X23478D01*
X22468Y57198D01*
X21563Y56676D01*
X20824Y55937D01*
X20302Y55032D01*
X20031Y54023D01*
Y54000D01*
X23500D01*
Y57468D01*
D02*
G37*
G36*
X66901Y54850D02*
X66483D01*
X66097Y54690D01*
X65802Y54395D01*
X65642Y54009D01*
Y53591D01*
X65802Y53205D01*
X66097Y52910D01*
X66483Y52750D01*
X66901D01*
X67287Y52910D01*
X67582Y53205D01*
X67742Y53591D01*
Y54009D01*
X67582Y54395D01*
X67287Y54690D01*
X66901Y54850D01*
D02*
G37*
G36*
X184957Y56968D02*
X184043D01*
X183161Y56732D01*
X182370Y56275D01*
X181725Y55630D01*
X181268Y54839D01*
X181032Y53957D01*
Y53043D01*
X181268Y52161D01*
X181725Y51370D01*
X182370Y50725D01*
X183161Y50268D01*
X184043Y50032D01*
X184957D01*
X185839Y50268D01*
X186630Y50725D01*
X187276Y51370D01*
X187732Y52161D01*
X187969Y53043D01*
Y53957D01*
X187732Y54839D01*
X187276Y55630D01*
X186630Y56275D01*
X185839Y56732D01*
X184957Y56968D01*
D02*
G37*
G36*
X14457D02*
X13543D01*
X12661Y56732D01*
X11870Y56275D01*
X11225Y55630D01*
X10768Y54839D01*
X10531Y53957D01*
Y53043D01*
X10768Y52161D01*
X11225Y51370D01*
X11870Y50725D01*
X12661Y50268D01*
X13543Y50032D01*
X14457D01*
X15339Y50268D01*
X16130Y50725D01*
X16775Y51370D01*
X17232Y52161D01*
X17469Y53043D01*
Y53957D01*
X17232Y54839D01*
X16775Y55630D01*
X16130Y56275D01*
X15339Y56732D01*
X14457Y56968D01*
D02*
G37*
G36*
X27968Y53000D02*
X24500D01*
Y49531D01*
X24522D01*
X25532Y49802D01*
X26437Y50324D01*
X27176Y51063D01*
X27698Y51968D01*
X27968Y52978D01*
Y53000D01*
D02*
G37*
G36*
X23500D02*
X20031D01*
Y52978D01*
X20302Y51968D01*
X20824Y51063D01*
X21563Y50324D01*
X22468Y49802D01*
X23478Y49531D01*
X23500D01*
Y53000D01*
D02*
G37*
G36*
X178469Y47469D02*
X175000D01*
Y44000D01*
X178469D01*
Y47469D01*
D02*
G37*
G36*
X174000D02*
X170531D01*
Y44000D01*
X174000D01*
Y47469D01*
D02*
G37*
G36*
X97965Y43806D02*
X97547D01*
X97161Y43646D01*
X96866Y43351D01*
X96706Y42965D01*
Y42547D01*
X96866Y42161D01*
X97161Y41866D01*
X97547Y41706D01*
X97965D01*
X98351Y41866D01*
X98646Y42161D01*
X98806Y42547D01*
Y42965D01*
X98646Y43351D01*
X98351Y43646D01*
X97965Y43806D01*
D02*
G37*
G36*
X184957Y46968D02*
X184043D01*
X183161Y46732D01*
X182370Y46275D01*
X181725Y45630D01*
X181268Y44839D01*
X181032Y43957D01*
Y43043D01*
X181268Y42161D01*
X181725Y41370D01*
X182370Y40725D01*
X183161Y40268D01*
X184043Y40031D01*
X184957D01*
X185839Y40268D01*
X186630Y40725D01*
X187276Y41370D01*
X187732Y42161D01*
X187969Y43043D01*
Y43957D01*
X187732Y44839D01*
X187276Y45630D01*
X186630Y46275D01*
X185839Y46732D01*
X184957Y46968D01*
D02*
G37*
G36*
X24457D02*
X23543D01*
X22661Y46732D01*
X21870Y46275D01*
X21225Y45630D01*
X20768Y44839D01*
X20531Y43957D01*
Y43043D01*
X20768Y42161D01*
X21225Y41370D01*
X21870Y40725D01*
X22661Y40268D01*
X23543Y40031D01*
X24457D01*
X25339Y40268D01*
X26130Y40725D01*
X26776Y41370D01*
X27232Y42161D01*
X27468Y43043D01*
Y43957D01*
X27232Y44839D01*
X26776Y45630D01*
X26130Y46275D01*
X25339Y46732D01*
X24457Y46968D01*
D02*
G37*
G36*
X17469D02*
X10531D01*
Y40031D01*
X17469D01*
Y46968D01*
D02*
G37*
G36*
X178469Y43000D02*
X175000D01*
Y39531D01*
X178469D01*
Y43000D01*
D02*
G37*
G36*
X174000D02*
X170531D01*
Y39531D01*
X174000D01*
Y43000D01*
D02*
G37*
G36*
X53882Y40950D02*
X53464D01*
X53078Y40790D01*
X52783Y40495D01*
X52623Y40109D01*
Y39691D01*
X52783Y39305D01*
X53078Y39010D01*
X53464Y38850D01*
X53882D01*
X54268Y39010D01*
X54563Y39305D01*
X54723Y39691D01*
Y40109D01*
X54563Y40495D01*
X54268Y40790D01*
X53882Y40950D01*
D02*
G37*
G36*
X86457Y36550D02*
X86040D01*
X85654Y36390D01*
X85358Y36095D01*
X85198Y35709D01*
Y35291D01*
X85358Y34905D01*
X85654Y34610D01*
X86040Y34450D01*
X86457D01*
X86843Y34610D01*
X87138Y34905D01*
X87298Y35291D01*
Y35709D01*
X87138Y36095D01*
X86843Y36390D01*
X86457Y36550D01*
D02*
G37*
G36*
X59100Y26871D02*
Y25900D01*
X60071D01*
X59914Y26278D01*
X59478Y26714D01*
X59100Y26871D01*
D02*
G37*
G36*
X58100D02*
X57722Y26714D01*
X57286Y26278D01*
X57129Y25900D01*
X58100D01*
Y26871D01*
D02*
G37*
G36*
X60071Y24900D02*
X59100D01*
Y23929D01*
X59478Y24086D01*
X59914Y24522D01*
X60071Y24900D01*
D02*
G37*
G36*
X58100D02*
X57129D01*
X57286Y24522D01*
X57722Y24086D01*
X58100Y23929D01*
Y24900D01*
D02*
G37*
G36*
X91965Y17306D02*
X91547D01*
X91161Y17146D01*
X90866Y16851D01*
X90706Y16465D01*
Y16047D01*
X90866Y15661D01*
X91161Y15366D01*
X91547Y15206D01*
X91965D01*
X92351Y15366D01*
X92646Y15661D01*
X92806Y16047D01*
Y16465D01*
X92646Y16851D01*
X92351Y17146D01*
X91965Y17306D01*
D02*
G37*
%LPD*%
D72*
X12100Y68000D02*
X92260D01*
X95500Y71240D01*
X10100Y70000D02*
X12100Y68000D01*
X14000Y100200D02*
X17600D01*
X190500Y228000D02*
X194000Y231500D01*
Y247500D01*
X181500Y228000D02*
X190500D01*
X185443Y221443D02*
X185500Y221500D01*
X183000Y218500D02*
X185443Y220943D01*
Y221443D01*
X74000Y88900D02*
X78600Y93500D01*
X83471Y76829D02*
Y86934D01*
X78800Y91605D02*
X83471Y86934D01*
X18600Y88900D02*
X74000D01*
X78600Y93500D02*
X79800D01*
X117300Y82300D02*
X172900Y137900D01*
X180100D01*
X117300Y66000D02*
Y82300D01*
X108300Y105700D02*
Y117300D01*
Y105700D02*
X111500Y102500D01*
X43079Y75500D02*
X43179Y75600D01*
X49700D01*
X36500Y75500D02*
X43079D01*
X31000Y63500D02*
X33000Y65500D01*
X24000Y63500D02*
X31000D01*
X18000Y69500D02*
X63500D01*
X14000Y73500D02*
X18000Y69500D01*
X63500D02*
X66000Y72000D01*
X10100Y70000D02*
Y83000D01*
X44000Y113500D02*
X52000D01*
X187169Y202669D02*
Y210831D01*
X185000Y213000D02*
X187169Y210831D01*
X174500Y190000D02*
X187169Y202669D01*
X181500Y213000D02*
X185000D01*
X135500Y212500D02*
X141000Y218000D01*
X169000D01*
X153292Y236208D02*
X176500Y213000D01*
X121909Y236208D02*
X153292D01*
X172581Y232000D02*
X173581Y233000D01*
X176500D01*
X172500Y232000D02*
X172581D01*
X157071Y242429D02*
X176500Y223000D01*
X66000Y72000D02*
X79100Y85100D01*
X105429Y58850D02*
X108633D01*
X100256Y199000D02*
X113600Y212344D01*
X77250Y175994D02*
X100256Y199000D01*
X14000Y133500D02*
X17400D01*
X20000Y130900D01*
Y121600D02*
Y130900D01*
Y121600D02*
X22000Y119600D01*
X106000D01*
X108300Y117300D01*
X19900Y113500D02*
X24000D01*
X16000Y117400D02*
X19900Y113500D01*
X11500Y117400D02*
X16000D01*
X10100Y116000D02*
X11500Y117400D01*
X10100Y111000D02*
Y116000D01*
Y111000D02*
X13700Y107400D01*
X34200D01*
X40600Y101000D01*
X92800D01*
X95800Y98000D01*
Y87287D02*
Y98000D01*
X122643Y61540D02*
X154603Y93500D01*
X174500D01*
Y103500D02*
X178400Y99600D01*
Y89769D02*
Y99600D01*
X176000Y87369D02*
X178400Y89769D01*
X153769Y87369D02*
X176000D01*
X125250Y58850D02*
X153769Y87369D01*
X108633Y58850D02*
X125250D01*
X131676Y61676D02*
X139200Y69200D01*
X178000D01*
X180600Y71800D01*
Y119600D01*
X184500Y123500D01*
X180100Y137900D02*
X184500Y133500D01*
X65059Y239500D02*
X69100D01*
X70300Y240700D01*
X114194D01*
X132800Y222094D01*
X126181Y212252D02*
Y226875D01*
X116856Y236200D02*
X126181Y226875D01*
X106800Y236200D02*
X116856D01*
X93600Y223000D02*
X106800Y236200D01*
X69103Y223000D02*
X93600D01*
X119941Y242429D02*
X157071D01*
X14000Y100200D02*
Y103500D01*
X17600Y100200D02*
X18200Y99600D01*
X84000D01*
X86900Y96700D01*
Y79800D02*
Y96700D01*
Y79800D02*
X90200Y76500D01*
X95300D01*
X97100Y74700D01*
X14000Y93500D02*
X18600Y88900D01*
X79800Y93500D02*
X85150Y88150D01*
Y79000D02*
Y88150D01*
Y79000D02*
X89650Y74500D01*
X94650D01*
X14000Y113500D02*
X18550Y108950D01*
X98588D01*
X113019Y94519D01*
X179000Y215500D02*
X181500Y213000D01*
X179000Y215500D02*
Y220500D01*
X181500Y223000D01*
X176500Y228000D02*
X181500Y223000D01*
X10600Y83500D02*
X14000D01*
X10100Y83000D02*
X10600Y83500D01*
X83471Y76829D02*
X87250Y73050D01*
X96250D01*
X99300Y70000D01*
Y56000D02*
Y70000D01*
Y56000D02*
X101800Y53500D01*
X174500D01*
X113600Y212344D02*
Y234100D01*
D73*
X179000Y238000D02*
D03*
X182996Y208000D02*
D03*
X175004D02*
D03*
D74*
X77756Y249043D02*
D03*
X47244D02*
D03*
D75*
X77165Y234083D02*
D03*
X47835D02*
D03*
D76*
X72343Y238217D02*
D03*
X52657D02*
D03*
X16783Y166657D02*
D03*
Y186343D02*
D03*
D77*
X20917Y191165D02*
D03*
Y161835D02*
D03*
D78*
X5957Y191756D02*
D03*
Y161244D02*
D03*
D79*
X184500Y133500D02*
D03*
Y123500D02*
D03*
Y113500D02*
D03*
Y103500D02*
D03*
Y93500D02*
D03*
Y83500D02*
D03*
Y73500D02*
D03*
Y63500D02*
D03*
Y53500D02*
D03*
Y43500D02*
D03*
X174500Y133500D02*
D03*
Y123500D02*
D03*
Y113500D02*
D03*
Y103500D02*
D03*
Y93500D02*
D03*
Y83500D02*
D03*
Y73500D02*
D03*
Y63500D02*
D03*
Y53500D02*
D03*
X24000Y133500D02*
D03*
Y123500D02*
D03*
Y113500D02*
D03*
Y103500D02*
D03*
Y93500D02*
D03*
Y83500D02*
D03*
Y73500D02*
D03*
Y63500D02*
D03*
X14000Y133500D02*
D03*
Y123500D02*
D03*
Y113500D02*
D03*
Y103500D02*
D03*
Y93500D02*
D03*
Y83500D02*
D03*
Y73500D02*
D03*
Y63500D02*
D03*
Y53500D02*
D03*
X24000D02*
D03*
Y43500D02*
D03*
D80*
X174500D02*
D03*
X14000D02*
D03*
D81*
X134071Y78500D02*
D03*
X119500Y118500D02*
D03*
X116500Y118000D02*
D03*
X95500Y107400D02*
D03*
X194000Y247500D02*
D03*
X189500Y230000D02*
D03*
X185500Y221500D02*
D03*
X78500Y89000D02*
D03*
X78800Y91605D02*
D03*
X117100Y110452D02*
D03*
X115500Y92000D02*
D03*
X111500Y102500D02*
D03*
X70500Y98000D02*
D03*
X36500Y75500D02*
D03*
X33000Y65500D02*
D03*
X49700Y75600D02*
D03*
X44000Y113500D02*
D03*
X52000D02*
D03*
X113443Y114706D02*
D03*
X111800Y123000D02*
D03*
X82700Y246000D02*
D03*
X97600Y244800D02*
D03*
X43000Y190500D02*
D03*
X86248Y35500D02*
D03*
X174500Y190000D02*
D03*
X135500Y212500D02*
D03*
X169000Y218000D02*
D03*
X172500Y232000D02*
D03*
X117631Y223600D02*
D03*
X82000Y62300D02*
D03*
X186900Y129000D02*
D03*
X41300Y198839D02*
D03*
X35000Y205139D02*
D03*
X180154Y153154D02*
D03*
X42800Y197339D02*
D03*
X110098Y214424D02*
D03*
X116900Y221226D02*
D03*
X55209Y170267D02*
D03*
X45700Y107500D02*
D03*
X26052Y171382D02*
D03*
X26535Y201000D02*
D03*
X97250Y94500D02*
D03*
X116004Y191668D02*
D03*
X79100Y85100D02*
D03*
X111190Y100010D02*
D03*
X100772Y85962D02*
D03*
X95800Y87287D02*
D03*
X105250Y74950D02*
D03*
X120892Y69000D02*
D03*
X97756Y42756D02*
D03*
X122643Y61540D02*
D03*
X108633Y58850D02*
D03*
X93850Y81050D02*
D03*
X131676Y61676D02*
D03*
X117300Y66000D02*
D03*
X28341Y181400D02*
D03*
X75500Y103100D02*
D03*
X65059Y239500D02*
D03*
X132800Y222094D02*
D03*
X126181Y212252D02*
D03*
X69103Y223000D02*
D03*
X119941Y242429D02*
D03*
X121909Y236208D02*
D03*
X70500Y83071D02*
D03*
X77250Y175994D02*
D03*
X131141Y78441D02*
D03*
X149000Y182000D02*
D03*
X96300Y65900D02*
D03*
X87100Y57500D02*
D03*
X97100Y74700D02*
D03*
X94650Y74500D02*
D03*
X66000Y72000D02*
D03*
X95900Y78900D02*
D03*
X125000Y102000D02*
D03*
X90250Y82700D02*
D03*
X97100Y198300D02*
D03*
X53673Y39900D02*
D03*
X107926Y212252D02*
D03*
X67618Y241800D02*
D03*
X32000Y251300D02*
D03*
X121900Y154000D02*
D03*
X101800Y109000D02*
D03*
X102800Y182000D02*
D03*
X106600Y107000D02*
D03*
X113200Y186000D02*
D03*
X102100Y77700D02*
D03*
X56900Y165300D02*
D03*
X79700Y207600D02*
D03*
X113019Y94519D02*
D03*
X91756Y16256D02*
D03*
X149000Y73500D02*
D03*
X105300Y96200D02*
D03*
X133400Y226031D02*
D03*
X84700Y64900D02*
D03*
X99696Y131000D02*
D03*
X112464Y142500D02*
D03*
X132900Y174000D02*
D03*
X58600Y25400D02*
D03*
X98287Y191668D02*
D03*
X104400Y200600D02*
D03*
X66692Y53800D02*
D03*
X95500Y71240D02*
D03*
X94571Y59750D02*
D03*
X123400Y147000D02*
D03*
X158400Y182000D02*
D03*
X106600Y190200D02*
D03*
X105429Y58850D02*
D03*
X121900Y123150D02*
D03*
X34600Y95400D02*
D03*
X88800Y88200D02*
D03*
X62500Y229200D02*
D03*
X123200Y224063D02*
D03*
X89700Y231000D02*
D03*
X119700D02*
D03*
X100256Y199000D02*
D03*
X113600Y234100D02*
D03*
X73850Y91250D02*
D03*
X102200Y190000D02*
D03*
D82*
X176500Y233000D02*
D03*
Y228000D02*
D03*
Y223000D02*
D03*
Y218000D02*
D03*
Y213000D02*
D03*
X181500D02*
D03*
Y218000D02*
D03*
Y223000D02*
D03*
Y228000D02*
D03*
Y233000D02*
D03*
M02*
