G04*
G04 #@! TF.GenerationSoftware,Altium Limited,Altium Designer,24.1.2 (44)*
G04*
G04 Layer_Color=16711935*
%FSLAX25Y25*%
%MOIN*%
G70*
G04*
G04 #@! TF.SameCoordinates,0CAF675C-D5BD-4F57-B94F-0EABEFC4C8CF*
G04*
G04*
G04 #@! TF.FilePolarity,Negative*
G04*
G01*
G75*
%ADD47C,0.04702*%
%ADD48O,0.05328X0.07887*%
%ADD49O,0.06509X0.08674*%
%ADD50C,0.03950*%
%ADD51O,0.08674X0.06509*%
%ADD52O,0.07887X0.05328*%
%ADD53C,0.06737*%
%ADD54R,0.06737X0.06737*%
%ADD55C,0.01900*%
%ADD83C,0.03898*%
D47*
X179000Y238000D02*
D03*
X182996Y208000D02*
D03*
X175004D02*
D03*
D48*
X77756Y249043D02*
D03*
X47244D02*
D03*
D49*
X77165Y234083D02*
D03*
X47835D02*
D03*
D50*
X72343Y238217D02*
D03*
X52657D02*
D03*
X16783Y166657D02*
D03*
Y186343D02*
D03*
D51*
X20917Y191165D02*
D03*
Y161835D02*
D03*
D52*
X5957Y191756D02*
D03*
Y161244D02*
D03*
D53*
X184500Y133500D02*
D03*
Y123500D02*
D03*
Y113500D02*
D03*
Y103500D02*
D03*
Y93500D02*
D03*
Y83500D02*
D03*
Y73500D02*
D03*
Y63500D02*
D03*
Y53500D02*
D03*
Y43500D02*
D03*
X174500Y133500D02*
D03*
Y123500D02*
D03*
Y113500D02*
D03*
Y103500D02*
D03*
Y93500D02*
D03*
Y83500D02*
D03*
Y73500D02*
D03*
Y63500D02*
D03*
Y53500D02*
D03*
X24000Y133500D02*
D03*
Y123500D02*
D03*
Y113500D02*
D03*
Y103500D02*
D03*
Y93500D02*
D03*
Y83500D02*
D03*
Y73500D02*
D03*
Y63500D02*
D03*
X14000Y133500D02*
D03*
Y123500D02*
D03*
Y113500D02*
D03*
Y103500D02*
D03*
Y93500D02*
D03*
Y83500D02*
D03*
Y73500D02*
D03*
Y63500D02*
D03*
Y53500D02*
D03*
X24000D02*
D03*
Y43500D02*
D03*
D54*
X174500D02*
D03*
X14000D02*
D03*
D55*
X134071Y78500D02*
D03*
X119500Y118500D02*
D03*
X116500Y118000D02*
D03*
X95500Y107400D02*
D03*
X194000Y247500D02*
D03*
X189500Y230000D02*
D03*
X185500Y221500D02*
D03*
X78500Y89000D02*
D03*
X78800Y91605D02*
D03*
X117100Y110452D02*
D03*
X115500Y92000D02*
D03*
X111500Y102500D02*
D03*
X70500Y98000D02*
D03*
X36500Y75500D02*
D03*
X33000Y65500D02*
D03*
X49700Y75600D02*
D03*
X44000Y113500D02*
D03*
X52000D02*
D03*
X113443Y114706D02*
D03*
X111800Y123000D02*
D03*
X82700Y246000D02*
D03*
X97600Y244800D02*
D03*
X43000Y190500D02*
D03*
X86248Y35500D02*
D03*
X174500Y190000D02*
D03*
X135500Y212500D02*
D03*
X169000Y218000D02*
D03*
X172500Y232000D02*
D03*
X117631Y223600D02*
D03*
X82000Y62300D02*
D03*
X186900Y129000D02*
D03*
X41300Y198839D02*
D03*
X35000Y205139D02*
D03*
X180154Y153154D02*
D03*
X42800Y197339D02*
D03*
X110098Y214424D02*
D03*
X116900Y221226D02*
D03*
X55209Y170267D02*
D03*
X45700Y107500D02*
D03*
X26052Y171382D02*
D03*
X26535Y201000D02*
D03*
X97250Y94500D02*
D03*
X116004Y191668D02*
D03*
X79100Y85100D02*
D03*
X111190Y100010D02*
D03*
X100772Y85962D02*
D03*
X95800Y87287D02*
D03*
X105250Y74950D02*
D03*
X120892Y69000D02*
D03*
X97756Y42756D02*
D03*
X122643Y61540D02*
D03*
X108633Y58850D02*
D03*
X93850Y81050D02*
D03*
X131676Y61676D02*
D03*
X117300Y66000D02*
D03*
X28341Y181400D02*
D03*
X75500Y103100D02*
D03*
X65059Y239500D02*
D03*
X132800Y222094D02*
D03*
X126181Y212252D02*
D03*
X69103Y223000D02*
D03*
X119941Y242429D02*
D03*
X121909Y236208D02*
D03*
X70500Y83071D02*
D03*
X77250Y175994D02*
D03*
X131141Y78441D02*
D03*
X149000Y182000D02*
D03*
X96300Y65900D02*
D03*
X87100Y57500D02*
D03*
X97100Y74700D02*
D03*
X94650Y74500D02*
D03*
X66000Y72000D02*
D03*
X95900Y78900D02*
D03*
X125000Y102000D02*
D03*
X90250Y82700D02*
D03*
X97100Y198300D02*
D03*
X53673Y39900D02*
D03*
X107926Y212252D02*
D03*
X67618Y241800D02*
D03*
X32000Y251300D02*
D03*
X121900Y154000D02*
D03*
X101800Y109000D02*
D03*
X102800Y182000D02*
D03*
X106600Y107000D02*
D03*
X113200Y186000D02*
D03*
X102100Y77700D02*
D03*
X56900Y165300D02*
D03*
X79700Y207600D02*
D03*
X113019Y94519D02*
D03*
X91756Y16256D02*
D03*
X149000Y73500D02*
D03*
X105300Y96200D02*
D03*
X133400Y226031D02*
D03*
X84700Y64900D02*
D03*
X99696Y131000D02*
D03*
X112464Y142500D02*
D03*
X132900Y174000D02*
D03*
X58600Y25400D02*
D03*
X98287Y191668D02*
D03*
X104400Y200600D02*
D03*
X66692Y53800D02*
D03*
X95500Y71240D02*
D03*
X94571Y59750D02*
D03*
X123400Y147000D02*
D03*
X158400Y182000D02*
D03*
X106600Y190200D02*
D03*
X105429Y58850D02*
D03*
X121900Y123150D02*
D03*
X34600Y95400D02*
D03*
X88800Y88200D02*
D03*
X62500Y229200D02*
D03*
X123200Y224063D02*
D03*
X89700Y231000D02*
D03*
X119700D02*
D03*
X100256Y199000D02*
D03*
X113600Y234100D02*
D03*
X73850Y91250D02*
D03*
X102200Y190000D02*
D03*
D83*
X176500Y233000D02*
D03*
Y228000D02*
D03*
Y223000D02*
D03*
Y218000D02*
D03*
Y213000D02*
D03*
X181500D02*
D03*
Y218000D02*
D03*
Y223000D02*
D03*
Y228000D02*
D03*
Y233000D02*
D03*
M02*
